<svg width="23" height="25" viewBox="0 0 23 25" fill="none" xmlns="http://www.w3.org/2000/svg">
<circle cx="9" cy="9" r="10" transform="matrix(1 0 0 -1 2.5 20)" stroke="#191919" stroke-width="2"/>
<path d="M4.20649 17.7929L2.905 16.4914L2.52135 18.2916L3.49939 18.5L2.52133 18.2916L2.5213 18.2918L2.52116 18.2925L2.52063 18.2949L2.51859 18.3045L2.51073 18.3415L2.48108 18.4815C2.45562 18.6021 2.41936 18.7743 2.37614 18.9812C2.28975 19.3949 2.17529 19.9486 2.06341 20.5069C1.95185 21.0636 1.84151 21.6315 1.76413 22.0711C1.72579 22.289 1.6934 22.4873 1.67326 22.6411C1.66355 22.7152 1.65407 22.7983 1.64993 22.8754C1.648 22.9116 1.6457 22.9719 1.65013 23.0405C1.65232 23.0744 1.65744 23.1326 1.67242 23.202C1.68336 23.2527 1.71885 23.4078 1.83218 23.5708C2.01052 23.8274 2.25214 23.929 2.39373 23.9681C2.53338 24.0067 2.65048 24.0068 2.71071 24.0044C2.83234 23.9997 2.93039 23.9745 2.97178 23.9633C3.06825 23.9372 3.16119 23.9006 3.22729 23.8731C3.37084 23.8134 3.54949 23.7282 3.7366 23.635C4.11727 23.4453 4.60771 23.1847 5.08538 22.9257C5.56537 22.6654 6.04169 22.4017 6.39742 22.2035C6.57544 22.1042 6.72362 22.0212 6.82741 21.9629L6.94804 21.895L6.98002 21.877L6.98833 21.8723L6.99049 21.8711L6.99107 21.8708L6.99123 21.8707L6.49939 21L6.9913 21.8706L8.40771 21.0704L7.05409 20.1679L5.63647 19.2229L4.20649 17.7929Z" stroke="#191919" stroke-width="2"/>
</svg>
