<svg width="13" height="13" viewBox="0 0 13 13" fill="none" xmlns="http://www.w3.org/2000/svg">
<g clip-path="url(#clip0_9138_777)">
<path d="M11.5 5.16406H7.5V1.16406C7.5 0.898846 7.39464 0.644492 7.20711 0.456956C7.01957 0.269419 6.76522 0.164063 6.5 0.164062C6.23478 0.164063 5.98043 0.269419 5.79289 0.456956C5.60536 0.644492 5.5 0.898846 5.5 1.16406V5.16406H1.5C1.23478 5.16406 0.98043 5.26942 0.792893 5.45696C0.605357 5.64449 0.5 5.89885 0.5 6.16406C0.5 6.42928 0.605357 6.68363 0.792893 6.87117C0.98043 7.05871 1.23478 7.16406 1.5 7.16406H5.5V11.1641C5.5 11.4293 5.60536 11.6836 5.79289 11.8712C5.98043 12.0587 6.23478 12.1641 6.5 12.1641C6.76522 12.1641 7.01957 12.0587 7.20711 11.8712C7.39464 11.6836 7.5 11.4293 7.5 11.1641V7.16406H11.5C11.7652 7.16406 12.0196 7.05871 12.2071 6.87117C12.3946 6.68363 12.5 6.42928 12.5 6.16406C12.5 5.89885 12.3946 5.64449 12.2071 5.45696C12.0196 5.26942 11.7652 5.16406 11.5 5.16406Z" fill="white"/>
</g>
<defs>
<clipPath id="clip0_9138_777">
<rect width="12" height="12" fill="white" transform="translate(0.5 0.164062)"/>
</clipPath>
</defs>
</svg>
