<svg width="23" height="24" viewBox="0 0 23 24" fill="none" xmlns="http://www.w3.org/2000/svg">
<path d="M13.3566 18.6762C14.7861 17.2468 15.2635 15.1365 14.7822 13.3137L18.849 9.05217L21.6391 8.79722L21.6229 8.78003C21.668 8.78827 21.7145 8.78555 21.7583 8.77209C21.8022 8.75863 21.8422 8.73483 21.875 8.70269C21.9025 8.67542 21.9244 8.64296 21.9394 8.60719C21.9544 8.57142 21.9622 8.53303 21.9622 8.49425C21.9623 8.45547 21.9548 8.41705 21.9399 8.38121C21.9251 8.34537 21.9034 8.31281 21.8759 8.28541L15.02 1.42856C14.9644 1.37329 14.8891 1.34235 14.8107 1.34253C14.7323 1.34271 14.6571 1.37399 14.6018 1.42951C14.5698 1.46259 14.5461 1.50276 14.5327 1.54674C14.5193 1.59072 14.5164 1.63726 14.5244 1.68255L14.5082 1.66536L14.2532 4.45642L9.99075 8.52318C8.16792 8.04097 6.05768 8.51936 4.62825 9.94783L8.26532 13.5849L3.174 18.6762C2.44639 19.4038 0.678944 21.4978 0.992138 22.3133C1.80663 22.6265 3.9016 20.8581 4.62825 20.1305L9.71957 15.0391L13.3566 18.6762Z" fill="#262626"/>
</svg>
