<svg width="37" height="37" viewBox="0 0 37 37" fill="none" xmlns="http://www.w3.org/2000/svg">
<g clip-path="url(#clip0_7879_1953)">
<path d="M10.04 7.985L13.34 3.5H23.66L26.96 7.985H31.595C34.295 7.985 36.5 10.22 36.5 12.98V28.505C36.5 31.265 34.295 33.5 31.595 33.5H5.405C2.705 33.5 0.5 31.265 0.5 28.505V12.98C0.5 10.22 2.705 7.985 5.405 7.985H10.04ZM18.5 11.33C17.3693 11.33 16.2497 11.5527 15.2051 11.9854C14.1605 12.4181 13.2113 13.0523 12.4118 13.8518C11.6123 14.6513 10.9781 15.6005 10.5454 16.6451C10.1127 17.6897 9.89 18.8093 9.89 19.94C9.89 21.0707 10.1127 22.1903 10.5454 23.2349C10.9781 24.2795 11.6123 25.2287 12.4118 26.0282C13.2113 26.8277 14.1605 27.4619 15.2051 27.8946C16.2497 28.3273 17.3693 28.55 18.5 28.55C20.7835 28.55 22.9735 27.6429 24.5882 26.0282C26.2029 24.4135 27.11 22.2235 27.11 19.94C27.11 17.6565 26.2029 15.4665 24.5882 13.8518C22.9735 12.2371 20.7835 11.33 18.5 11.33ZM18.5 15.425C20.99 15.425 23.015 17.45 23.015 19.94C23.015 22.43 20.99 24.455 18.5 24.455C16.01 24.455 13.985 22.43 13.985 19.94C13.985 17.45 16.01 15.425 18.5 15.425Z" fill="#C19008"/>
</g>
<defs>
<clipPath id="clip0_7879_1953">
<rect width="36" height="36" fill="white" transform="translate(0.5 0.5)"/>
</clipPath>
</defs>
</svg>
