<svg width="17" height="14" viewBox="0 0 17 14" fill="none" xmlns="http://www.w3.org/2000/svg">
<path d="M3.98045 2.49538C4.59398 2.49538 5.20084 2.72755 5.64098 3.13543L6.62796 4.03902L8.02173 5.31911L9.4155 4.03902L10.4025 3.13543C10.8473 2.72814 11.4424 2.49875 12.063 2.49538C12.3898 2.49538 12.8633 2.56441 13.2967 2.8907C13.5087 3.04504 13.6829 3.2405 13.8074 3.46381C13.9319 3.68712 14.0039 3.93304 14.0185 4.18485C14.033 4.43667 13.9898 4.68848 13.8917 4.92318C13.7937 5.15787 13.643 5.36995 13.4501 5.54501L13.4034 5.58893L13.3567 5.63913C13.3167 5.68305 9.6289 9.54215 8.02173 11.1297C6.41455 9.53587 2.72672 5.67678 2.68671 5.63913L2.6467 5.58893L2.59335 5.54501C2.40206 5.37089 2.25208 5.16068 2.15323 4.92817C2.05439 4.69566 2.00893 4.44611 2.01983 4.19589C2.05388 3.73041 2.276 3.29484 2.6406 2.97861C3.0052 2.66238 3.48463 2.48947 3.98045 2.49538ZM12.063 0.612897C10.9217 0.616637 9.82662 1.03736 9.00871 1.78631L8.02173 2.6899L7.03475 1.78631C6.21684 1.03736 5.12173 0.616637 3.98045 0.612897C3.09351 0.612897 2.21323 0.876445 1.493 1.42237C1.0602 1.74385 0.705454 2.14869 0.45255 2.60975C0.199646 3.0708 0.0544313 3.5774 0.0266434 4.09559C-0.00114453 4.61377 0.0891368 5.13156 0.291433 5.61422C0.49373 6.09689 0.803365 6.53327 1.19958 6.89412C1.19958 6.89412 5.39423 11.2929 6.85469 12.7047C7.16813 13.0122 7.59493 13.1628 8.02173 13.1628C8.44853 13.1628 8.87533 13.0122 9.18876 12.7047C10.6492 11.2929 14.8439 6.89412 14.8439 6.89412C15.2401 6.53327 15.5497 6.09689 15.752 5.61422C15.9543 5.13156 16.0446 4.61377 16.0168 4.09559C15.989 3.5774 15.8438 3.0708 15.5909 2.60975C15.338 2.14869 14.9833 1.74385 14.5505 1.42237C13.8444 0.892309 12.9662 0.606542 12.063 0.612897Z" fill="#EA5A69"/>
</svg>
