<svg width="57" height="68" viewBox="0 0 57 68" fill="none" xmlns="http://www.w3.org/2000/svg">
<path d="M28.5276 33.8318C43.8374 33.8318 56.2476 46.2573 56.2476 61.5859V67.1367H0.807617V61.5859C0.807617 46.2573 13.2179 33.8318 28.5276 33.8318ZM28.5276 31.0564C24.4841 31.0564 20.6062 29.4481 17.7471 26.5854C14.8879 23.7227 13.2816 19.8401 13.2816 15.7916C13.2816 11.7431 14.8879 7.8605 17.7471 4.9978C20.6062 2.1351 24.4841 0.526855 28.5276 0.526855C32.5711 0.526855 36.449 2.1351 39.3082 4.9978C42.1673 7.8605 43.7736 11.7431 43.7736 15.7916C43.7736 19.8401 42.1673 23.7227 39.3082 26.5854C36.449 29.4481 32.5711 31.0564 28.5276 31.0564Z" fill="#CDCDCD"/>
</svg>
