<svg width="22" height="23" viewBox="0 0 22 23" fill="none" xmlns="http://www.w3.org/2000/svg">
<path d="M17.4168 10.1247C17.4168 11.6657 16.9599 13.1722 16.1037 14.4535C15.2475 15.7348 14.0306 16.7335 12.6069 17.3232C11.1832 17.913 9.61652 18.0673 8.10509 17.7666C6.59365 17.466 5.20531 16.7239 4.11563 15.6342C3.02594 14.5445 2.28386 13.1562 1.98321 11.6448C1.68257 10.1333 1.83687 8.56667 2.4266 7.14293C3.01634 5.71919 4.01502 4.5023 5.29635 3.64614C6.57768 2.78998 8.08412 2.33301 9.62517 2.33301C11.6916 2.33301 13.6735 3.15391 15.1347 4.61513C16.5959 6.07636 17.4168 8.0582 17.4168 10.1247Z" stroke="#262626" stroke-width="2" stroke-linecap="round" stroke-linejoin="round"/>
<path d="M15.1353 15.6348L20.1668 20.6663" stroke="#262626" stroke-width="2" stroke-linecap="round" stroke-linejoin="round"/>
</svg>
