<svg width="23" height="22" viewBox="0 0 23 22" fill="none" xmlns="http://www.w3.org/2000/svg">
<g clip-path="url(#clip0_8882_2173)">
<g clip-path="url(#clip1_8882_2173)">
<path d="M2.75016 5.50016H11.9168C12.4031 5.50016 12.8694 5.30701 13.2132 4.96319C13.557 4.61937 13.7502 4.15306 13.7502 3.66683C13.7502 3.1806 13.557 2.71428 13.2132 2.37047C12.8694 2.02665 12.4031 1.83349 11.9168 1.83349L2.75016 1.83349C2.26393 1.83349 1.79762 2.02665 1.4538 2.37047C1.10998 2.71428 0.916828 3.1806 0.916828 3.66683C0.916828 4.15306 1.10998 4.61937 1.4538 4.96319C1.79762 5.30701 2.26393 5.50016 2.75016 5.50016ZM18.3335 6.41683C19.0628 6.41683 19.7623 6.1271 20.278 5.61137C20.7938 5.09565 21.0835 4.39617 21.0835 3.66683C21.0835 2.93748 20.7938 2.23801 20.278 1.72228C19.7623 1.20656 19.0628 0.916828 18.3335 0.916828C17.6042 0.916828 16.9047 1.20656 16.389 1.72228C15.8732 2.23801 15.5835 2.93748 15.5835 3.66683C15.5835 4.39617 15.8732 5.09565 16.389 5.61137C16.9047 6.1271 17.6042 6.41683 18.3335 6.41683ZM2.75016 12.8335H11.9168C12.4031 12.8335 12.8694 12.6403 13.2132 12.2965C13.557 11.9527 13.7502 11.4864 13.7502 11.0002C13.7502 10.5139 13.557 10.0476 13.2132 9.7038C12.8694 9.35998 12.4031 9.16683 11.9168 9.16683H2.75016C2.26393 9.16683 1.79762 9.35998 1.4538 9.7038C1.10998 10.0476 0.916828 10.5139 0.916828 11.0002C0.916828 11.4864 1.10998 11.9527 1.4538 12.2965C1.79762 12.6403 2.26393 12.8335 2.75016 12.8335ZM18.3335 13.7502C19.0628 13.7502 19.7623 13.4604 20.278 12.9447C20.7938 12.429 21.0835 11.7295 21.0835 11.0002C21.0835 10.2708 20.7938 9.57134 20.278 9.05562C19.7623 8.53989 19.0628 8.25016 18.3335 8.25016C17.6042 8.25016 16.9047 8.53989 16.389 9.05562C15.8732 9.57134 15.5835 10.2708 15.5835 11.0002C15.5835 11.7295 15.8732 12.429 16.389 12.9447C16.9047 13.4604 17.6042 13.7502 18.3335 13.7502ZM11.9168 16.5002L2.75016 16.5002C2.26393 16.5002 1.79762 16.6933 1.4538 17.0371C1.10998 17.3809 0.916828 17.8473 0.916828 18.3335C0.916828 18.8197 1.10998 19.286 1.4538 19.6299C1.79762 19.9737 2.26393 20.1668 2.75016 20.1668L11.9168 20.1668C12.4031 20.1668 12.8694 19.9737 13.2132 19.6299C13.557 19.286 13.7502 18.8197 13.7502 18.3335C13.7502 17.8473 13.557 17.3809 13.2132 17.0371C12.8694 16.6933 12.4031 16.5002 11.9168 16.5002ZM15.5835 18.3335C15.5835 17.9724 15.6546 17.6148 15.7928 17.2811C15.931 16.9475 16.1336 16.6443 16.389 16.389C16.6443 16.1336 16.9475 15.931 17.2811 15.7928C17.6148 15.6546 17.9724 15.5835 18.3335 15.5835C18.6946 15.5835 19.0522 15.6546 19.3859 15.7928C19.7195 15.931 20.0227 16.1336 20.278 16.389C20.5334 16.6443 20.736 16.9475 20.8742 17.2811C21.0124 17.6148 21.0835 17.9724 21.0835 18.3335C21.0835 19.0628 20.7938 19.7623 20.278 20.278C19.7623 20.7938 19.0628 21.0835 18.3335 21.0835C17.6042 21.0835 16.9047 20.7938 16.389 20.278C15.8732 19.7623 15.5835 19.0628 15.5835 18.3335Z" fill="#191919"/>
</g>
</g>
<defs>
<clipPath id="clip0_8882_2173">
<rect width="22.6719" height="22" fill="white"/>
</clipPath>
<clipPath id="clip1_8882_2173">
<rect width="22" height="22" fill="white" transform="matrix(-1 0 0 -1 22 22)"/>
</clipPath>
</defs>
</svg>
