<svg width="22" height="25" viewBox="0 0 22 25" fill="none" xmlns="http://www.w3.org/2000/svg">
<path d="M12 12.4219C13.1867 12.4219 14.3467 12.07 15.3334 11.4107C16.3201 10.7514 17.0892 9.81433 17.5433 8.71798C17.9974 7.62162 18.1162 6.41522 17.8847 5.25134C17.6532 4.08745 17.0818 3.01835 16.2426 2.17924C15.4035 1.34012 14.3344 0.768677 13.1705 0.537166C12.0067 0.305655 10.8003 0.424475 9.7039 0.878601C8.60754 1.33273 7.67047 2.10176 7.01118 3.08846C6.35189 4.07515 6 5.23519 6 6.42188C6 8.01318 6.63214 9.5393 7.75736 10.6645C8.88258 11.7897 10.4087 12.4219 12 12.4219ZM12 2.42188C12.7911 2.42188 13.5645 2.65647 14.2223 3.096C14.8801 3.53552 15.3928 4.16024 15.6955 4.89114C15.9983 5.62205 16.0775 6.42631 15.9231 7.20224C15.7688 7.97816 15.3878 8.6909 14.8284 9.25031C14.269 9.80972 13.5563 10.1907 12.7804 10.345C12.0044 10.4994 11.2002 10.4201 10.4693 10.1174C9.73836 9.81465 9.11365 9.30196 8.67412 8.64416C8.2346 7.98636 8 7.213 8 6.42188C8 5.36101 8.42143 4.3436 9.17157 3.59345C9.92172 2.84331 10.9391 2.42188 12 2.42188ZM12 23.4219C12 23.6871 11.8946 23.9414 11.7071 24.129C11.5196 24.3165 11.2652 24.4219 11 24.4219H3C2.20435 24.4219 1.44129 24.1058 0.87868 23.5432C0.31607 22.9806 0 22.2175 0 21.4219C0 19.5654 0.737498 17.7849 2.05025 16.4721C3.36301 15.1594 5.14348 14.4219 7 14.4219H10C10.2652 14.4219 10.5196 14.5272 10.7071 14.7148C10.8946 14.9023 11 15.1567 11 15.4219C11 15.6871 10.8946 15.9414 10.7071 16.129C10.5196 16.3165 10.2652 16.4219 10 16.4219H7C5.67392 16.4219 4.40215 16.9487 3.46447 17.8863C2.52678 18.824 2 20.0958 2 21.4219C2 21.6871 2.10536 21.9414 2.29289 22.129C2.48043 22.3165 2.73478 22.4219 3 22.4219H11C11.2652 22.4219 11.5196 22.5272 11.7071 22.7148C11.8946 22.9023 12 23.1567 12 23.4219Z" fill="#191919"/>
<path d="M18 17.8863V19.8863H20.5C20.5 19.8863 21.5 19.8863 21.5 18.8863C21.5 17.8863 20.5 17.8863 20.5 17.8863H18Z" fill="#191919"/>
<path d="M16 19.8863V18.9219V17.8863L13.5 17.9219C13.5 17.9219 12.5 17.9219 12.5 18.9219C12.5 19.9219 13.5 19.9219 13.5 19.9219L16 19.8863Z" fill="#191919"/>
<path d="M18 19.8863V17.8863H17H16V18.9219V19.8863H17H18Z" fill="#191919"/>
</svg>
