<svg width="25" height="25" viewBox="0 0 25 25" fill="none" xmlns="http://www.w3.org/2000/svg">
<path d="M2.5 1.66406C2.23478 1.66406 1.98043 1.76942 1.79289 1.95696C1.60536 2.14449 1.5 2.39885 1.5 2.66406V13.6641C1.5 13.9293 1.60536 14.1836 1.79289 14.3712C1.98043 14.5587 2.23478 14.6641 2.5 14.6641H10.5C10.7652 14.6641 11.0196 14.5587 11.2071 14.3712C11.3946 14.1836 11.5 13.9293 11.5 13.6641V2.66406C11.5 2.39885 11.3946 2.14449 11.2071 1.95696C11.0196 1.76942 10.7652 1.66406 10.5 1.66406H2.5ZM14.5 11.6641C14.2348 11.6641 13.9804 11.7694 13.7929 11.957C13.6054 12.1445 13.5 12.3988 13.5 12.6641V22.6641C13.5 22.9293 13.6054 23.1836 13.7929 23.3712C13.9804 23.5587 14.2348 23.6641 14.5 23.6641H22.5C22.7652 23.6641 23.0196 23.5587 23.2071 23.3712C23.3946 23.1836 23.5 22.9293 23.5 22.6641V12.6641C23.5 12.3988 23.3946 12.1445 23.2071 11.957C23.0196 11.7694 22.7652 11.6641 22.5 11.6641H14.5ZM1.5 22.6641C1.5 22.9293 1.60536 23.1836 1.79289 23.3712C1.98043 23.5587 2.23478 23.6641 2.5 23.6641H10.5C10.7652 23.6641 11.0196 23.5587 11.2071 23.3712C11.3946 23.1836 11.5 22.9293 11.5 22.6641V17.6641C11.5 17.3988 11.3946 17.1445 11.2071 16.957C11.0196 16.7694 10.7652 16.6641 10.5 16.6641H2.5C2.23478 16.6641 1.98043 16.7694 1.79289 16.957C1.60536 17.1445 1.5 17.3988 1.5 17.6641V22.6641ZM14.5 1.66406C14.2348 1.66406 13.9804 1.76942 13.7929 1.95696C13.6054 2.14449 13.5 2.39885 13.5 2.66406V8.66406C13.5 8.92928 13.6054 9.18363 13.7929 9.37117C13.9804 9.55871 14.2348 9.66406 14.5 9.66406H22.5C22.7652 9.66406 23.0196 9.55871 23.2071 9.37117C23.3946 9.18363 23.5 8.92928 23.5 8.66406V2.66406C23.5 2.39885 23.3946 2.14449 23.2071 1.95696C23.0196 1.76942 22.7652 1.66406 22.5 1.66406H14.5Z" fill="#262626"/>
</svg>
