<svg width="54" height="20" viewBox="0 0 54 20" fill="none" xmlns="http://www.w3.org/2000/svg">
<g clip-path="url(#clip0_10144_2775)">
<path d="M13.5065 13.7225C13.5065 13.989 13.3873 14.2446 13.1752 14.4331C12.963 14.6216 12.6753 14.7275 12.3753 14.7275C12.0753 14.7275 11.7876 14.6216 11.5755 14.4331C11.3633 14.2446 11.2442 13.989 11.2442 13.7225C11.2412 12.7257 10.7934 11.7706 9.999 11.0667C9.20461 10.3628 8.12844 9.96748 7.00649 9.96748H4.30519L6.07229 11.5325C6.17687 11.6257 6.25975 11.7363 6.3162 11.858C6.37266 11.9797 6.40158 12.1101 6.40132 12.2417C6.40106 12.3734 6.37162 12.5037 6.31468 12.6252C6.25774 12.7467 6.17442 12.8571 6.06948 12.95C5.96454 13.0429 5.84002 13.1165 5.70305 13.1667C5.56607 13.2168 5.41932 13.2425 5.27117 13.2423C5.12302 13.2421 4.97637 13.2159 4.83959 13.1653C4.70282 13.1147 4.5786 13.0407 4.47403 12.9475L0 8.98248L4.4684 5.01748C4.6796 4.82918 4.96634 4.72313 5.26554 4.72266C5.56475 4.72219 5.85191 4.82734 6.06385 5.01498C6.2758 5.20262 6.39516 5.45738 6.39569 5.72321C6.39622 5.98905 6.27786 6.24418 6.06667 6.43248L4.34459 7.95748H7.00649C10.5913 7.95748 13.5065 10.5425 13.5065 13.7225Z" fill="#EA5A69"/>
</g>
<path d="M32.9197 16.2467H29.5357C27.8957 16.2467 26.8437 15.5947 26.3797 14.2907C26.2517 13.9547 26.1877 13.6107 26.1877 13.2587C26.1877 12.6667 26.3597 12.1267 26.7037 11.6387C27.0557 11.1427 27.5397 10.7627 28.1557 10.4987L31.3597 9.15466C30.8397 9.00266 30.3157 8.87066 29.7877 8.75866C29.2597 8.63866 28.9397 8.57866 28.8277 8.57866C28.5797 8.57866 28.3837 8.76266 28.2397 9.13066L26.6077 8.61466C26.7917 7.95066 27.0757 7.43066 27.4597 7.05466C27.8437 6.67066 28.2997 6.47866 28.8277 6.47866C29.4517 6.47866 30.9357 6.96266 33.2797 7.93066L33.4837 10.1747L32.7637 10.4867C32.9077 10.7027 33.1077 10.8547 33.3637 10.9427C33.6277 11.0227 33.9637 11.0627 34.3717 11.0627H34.6717L34.7437 12.1667L34.6717 13.2227H34.3717C33.6757 13.2227 33.0637 13.0427 32.5357 12.6827C32.0157 12.3227 31.6077 11.8027 31.3117 11.1227L28.8757 12.1907C28.2597 12.4707 27.9517 12.8107 27.9517 13.2107C27.9517 13.5227 28.0837 13.7467 28.3477 13.8827C28.6117 14.0187 29.0077 14.0867 29.5357 14.0867H32.9197V16.2467ZM27.9517 4.18666H29.8117V5.98666H27.9517V4.18666ZM34.5866 11.0627H35.5586C35.7666 11.0627 35.9186 11.0227 36.0146 10.9427C36.1106 10.8627 36.1586 10.7307 36.1586 10.5467V8.98666H38.0786V10.5107C38.0786 10.6867 38.1386 10.8227 38.2586 10.9187C38.3786 11.0147 38.5186 11.0627 38.6786 11.0627C38.8386 11.0627 38.9786 11.0147 39.0986 10.9187C39.2186 10.8147 39.2786 10.6787 39.2786 10.5107L39.2666 8.98666H41.1866L41.1746 10.5107C41.1746 10.6867 41.2266 10.8227 41.3306 10.9187C41.4346 11.0147 41.5666 11.0627 41.7266 11.0627C41.9026 11.0627 42.0586 11.0107 42.1946 10.9067C42.3306 10.7947 42.3826 10.6387 42.3506 10.4387L42.0266 8.60266L43.8146 8.15866C44.0866 9.29466 44.2226 10.1347 44.2226 10.6787C44.2226 11.3987 44.0226 12.0027 43.6226 12.4907C43.2226 12.9787 42.5906 13.2227 41.7266 13.2227C41.1186 13.2227 40.6186 13.0107 40.2266 12.5867C40.0506 12.7627 39.8186 12.9147 39.5306 13.0427C39.2506 13.1627 38.9426 13.2227 38.6066 13.2227C38.3266 13.2227 38.0266 13.1587 37.7066 13.0307C37.3946 12.8947 37.1826 12.7467 37.0706 12.5867C36.9586 12.7627 36.7586 12.9147 36.4706 13.0427C36.1826 13.1627 35.8426 13.2227 35.4506 13.2227H34.5866V11.0627ZM48.0945 13.2227C47.2225 13.2227 46.5585 12.9627 46.1025 12.4427C45.6465 11.9147 45.4185 11.2387 45.4185 10.4147V5.06266H47.3265V10.4147C47.3265 10.6307 47.3385 10.7827 47.3625 10.8707C47.3945 10.9507 47.4585 11.0027 47.5545 11.0267C47.6585 11.0507 47.8385 11.0627 48.0945 11.0627H48.6945L48.7665 12.1787L48.6945 13.2227H48.0945ZM48.5668 11.0627H49.6948C50.2708 11.0627 50.5388 10.8667 50.4988 10.4747C50.4588 10.0187 50.3668 9.39466 50.2228 8.60266L52.0108 8.15866C52.2828 9.29466 52.4188 10.1347 52.4188 10.6787C52.4188 11.1187 52.3228 11.5347 52.1308 11.9267C51.9468 12.3107 51.6668 12.6227 51.2908 12.8627C50.9148 13.1027 50.4508 13.2227 49.8988 13.2227H48.5668V11.0627ZM48.5548 14.0267H50.0668H50.1508H51.6508V15.6107H50.1508H50.0668H48.5548V14.0267ZM49.3588 16.0547H50.8708V17.3387H49.3588V16.0547Z" fill="#EA5A69"/>
<defs>
<clipPath id="clip0_10144_2775">
<rect width="13.5065" height="12" fill="white" transform="translate(0 3.72266)"/>
</clipPath>
</defs>
</svg>
