<svg width="24" height="21" viewBox="0 0 24 21" fill="none" xmlns="http://www.w3.org/2000/svg">
<path d="M23.539 19.6873L23.57 19.6543C23.7851 19.4379 23.9277 19.16 23.9782 18.8591C24.0287 18.5582 23.9846 18.249 23.852 17.9743L21 11.6143L7.99997 10.1143L21 8.61426L23.853 2.25426C23.9849 1.98069 24.0291 1.67305 23.9795 1.37341C23.9299 1.07377 23.789 0.796755 23.576 0.58026L23.535 0.53826C23.132 0.150259 22.522 -0.0217395 21.909 0.238261L0.918973 8.73126C0.733973 8.80926 0.575972 8.91526 0.446973 9.04126L0.412972 9.07426C-0.273028 9.78426 -0.104028 11.0683 0.919972 11.4973L21.91 19.9913C22.0977 20.0718 22.2997 20.1136 22.504 20.1143C22.902 20.1143 23.268 19.9503 23.539 19.6873Z" fill="#EA5A69"/>
</svg>
