<svg width="16" height="16" viewBox="0 0 16 16" fill="none" xmlns="http://www.w3.org/2000/svg">
<g clip-path="url(#clip0_8216_126)">
<path d="M15.8934 2.80695C15.3192 2.97454 14.7964 3.28411 14.3735 3.70707C13.9505 4.13003 13.641 4.65275 13.4734 5.22695C13.4334 5.36695 13.2334 5.36695 13.1934 5.22695C13.0258 4.65275 12.7162 4.13003 12.2932 3.70707C11.8703 3.28411 11.3476 2.97454 10.7734 2.80695C10.6334 2.76695 10.6334 2.56695 10.7734 2.52695C11.3476 2.35936 11.8703 2.0498 12.2932 1.62683C12.7162 1.20387 13.0258 0.681155 13.1934 0.106953C13.2334 -0.0330469 13.4334 -0.0330469 13.4734 0.106953C13.641 0.681155 13.9505 1.20387 14.3735 1.62683C14.7964 2.0498 15.3192 2.35936 15.8934 2.52695C16.0334 2.56695 16.0334 2.76695 15.8934 2.80695ZM13.7267 9.36695C12.2172 9.80661 10.8431 10.6199 9.73137 11.7316C8.61967 12.8433 7.80636 14.2175 7.3667 15.727C7.26003 16.0936 6.74003 16.0936 6.63337 15.727C6.1931 14.2167 5.37878 12.842 4.26585 11.7303C3.15292 10.6185 1.77739 9.80564 0.266699 9.36695C-0.0999674 9.26029 -0.0999674 8.74029 0.266699 8.63362C1.77816 8.19432 3.1542 7.38044 4.26719 6.26745C5.38018 5.15446 6.19407 3.77841 6.63337 2.26695C6.74003 1.90029 7.26003 1.90029 7.3667 2.26695C7.80636 3.77641 8.61967 5.15058 9.73137 6.26228C10.8431 7.37398 12.2172 8.1873 13.7267 8.62695C14.0934 8.73362 14.0934 9.25362 13.7267 9.36029V9.36695Z" fill="#812AE7"/>
</g>
<defs>
<clipPath id="clip0_8216_126">
<rect width="16" height="16" fill="white"/>
</clipPath>
</defs>
</svg>
