<svg width="329" height="80" viewBox="0 0 329 80" fill="none" xmlns="http://www.w3.org/2000/svg">
<rect x="48.75" y="31.25" width="57.5" height="0.5" fill="#0043CE"/>
<rect x="48.75" y="31.25" width="57.5" height="0.5" stroke="#191919" stroke-width="0.5"/>
<rect x="106.75" y="31.25" width="57.5" height="0.5" fill="#0043CE"/>
<rect x="106.75" y="31.25" width="57.5" height="0.5" stroke="#191919" stroke-width="0.5"/>
<rect width="58" height="1" transform="translate(164.5 31)" fill="#C6C6C6"/>
<rect width="58" height="1" transform="translate(222.5 31)" fill="#C6C6C6"/>
<rect x="39" y="21.5" width="19" height="19" rx="9.5" fill="white"/>
<rect x="39" y="21.5" width="19" height="19" rx="9.5" stroke="#191919"/>
<circle cx="48.5" cy="31" r="2" fill="#191919"/>
<path d="M46.476 53.2522C46.2267 53.2522 46.0166 53.2043 45.8456 53.1087C45.6775 53.013 45.5383 52.8928 45.4282 52.7478C45.3673 52.8261 45.3021 52.8971 45.2325 52.9609C45.163 53.0217 45.0804 53.0739 44.9847 53.1174C44.892 53.1638 44.7818 53.1986 44.6543 53.2217C44.5296 53.2449 44.3804 53.2565 44.2065 53.2565C44.0847 53.2565 43.9731 53.2478 43.8717 53.2304C43.7702 53.213 43.6775 53.1913 43.5934 53.1652C43.5905 53.5043 43.5383 53.813 43.4369 54.0913C43.3383 54.3696 43.2021 54.6188 43.0282 54.8391C42.8572 55.0594 42.6557 55.2507 42.4238 55.413C42.192 55.5754 41.9427 55.7087 41.676 55.813C41.4094 55.9203 41.1296 56 40.8369 56.0522C40.547 56.1043 40.2586 56.1304 39.9717 56.1304C39.5282 56.1304 39.118 56.0565 38.7412 55.9087C38.3644 55.7638 38.0383 55.558 37.763 55.2913C37.4905 55.0275 37.2775 54.7087 37.1238 54.3348C36.9702 53.9638 36.8934 53.5536 36.8934 53.1043C36.9021 52.8435 36.9369 52.5768 36.9978 52.3043C37.0615 52.0319 37.1412 51.7652 37.2369 51.5043C37.3354 51.2435 37.4441 50.9957 37.563 50.7609C37.6847 50.5232 37.8079 50.3101 37.9325 50.1217L38.8804 50.8478C38.776 51.0188 38.676 51.2 38.5804 51.3913C38.4847 51.5826 38.4007 51.7768 38.3282 51.9739C38.2586 52.1681 38.2021 52.3638 38.1586 52.5609C38.1151 52.758 38.0934 52.9478 38.0934 53.1304C38.0847 53.3507 38.1267 53.558 38.2195 53.7522C38.3151 53.9493 38.447 54.1203 38.6151 54.2652C38.7862 54.413 38.9862 54.529 39.2151 54.613C39.4441 54.7 39.6905 54.7435 39.9543 54.7435C40.1543 54.7435 40.3528 54.729 40.5499 54.7C40.7499 54.6739 40.9398 54.629 41.1195 54.5652C41.3021 54.5043 41.4717 54.4246 41.6282 54.3261C41.7847 54.2304 41.9195 54.113 42.0325 53.9739C42.1485 53.8348 42.2383 53.6725 42.3021 53.487C42.3688 53.3043 42.4021 53.0957 42.4021 52.8609C42.4021 52.687 42.376 52.5058 42.3238 52.3174C42.2717 52.1261 42.2021 51.9319 42.1151 51.7348C42.0311 51.5348 41.934 51.3319 41.8238 51.1261C41.7166 50.9203 41.605 50.7145 41.4891 50.5087L42.6934 49.8652C42.7978 50.1145 42.9065 50.3594 43.0195 50.6C43.1325 50.8406 43.2499 51.0565 43.3717 51.2478C43.4934 51.4362 43.6195 51.5884 43.7499 51.7043C43.8804 51.8174 44.0151 51.871 44.1543 51.8652C44.2702 51.8623 44.3615 51.8304 44.4282 51.7696C44.4978 51.7087 44.5514 51.629 44.5891 51.5304C44.6267 51.4319 44.6514 51.3188 44.663 51.1913C44.6746 51.0638 44.6804 50.9304 44.6804 50.7913C44.6775 50.6696 44.6731 50.5449 44.6673 50.4174C44.6615 50.287 44.6572 50.1609 44.6543 50.0391L45.8891 49.8696C45.8891 49.9507 45.892 50.058 45.8978 50.1913C45.9065 50.3217 45.9195 50.4623 45.9369 50.613C45.9572 50.7638 45.9833 50.9159 46.0151 51.0696C46.0499 51.2232 46.0934 51.3623 46.1456 51.487C46.1978 51.6087 46.2601 51.7087 46.3325 51.787C46.405 51.8652 46.4905 51.9043 46.5891 51.9043C46.6847 51.9043 46.7688 51.8609 46.8412 51.7739C46.9166 51.6841 46.9789 51.5696 47.0282 51.4304C47.0804 51.2913 47.118 51.1377 47.1412 50.9696C47.1673 50.7986 47.1804 50.6319 47.1804 50.4696C47.1804 50.4058 47.1789 50.3609 47.176 50.3348C47.176 50.3058 47.176 50.2812 47.176 50.2609C47.176 50.2377 47.1746 50.2116 47.1717 50.1826C47.1717 50.1507 47.1717 50.1 47.1717 50.0304L48.3499 49.8609L48.3804 50.2043V50.2C48.3862 50.2754 48.392 50.3449 48.3978 50.4087C48.4065 50.4725 48.4151 50.5391 48.4238 50.6087C48.4325 50.6754 48.4427 50.7478 48.4543 50.8261C48.4659 50.9043 48.4789 50.9957 48.4934 51.1C48.5108 51.2333 48.5485 51.3493 48.6065 51.4478C48.6644 51.5464 48.7325 51.629 48.8108 51.6957C48.8891 51.7594 48.9717 51.8072 49.0586 51.8391C49.1456 51.871 49.2282 51.887 49.3065 51.887H49.3586C49.4659 51.887 49.563 51.9058 49.6499 51.9435C49.7398 51.9783 49.8166 52.0275 49.8804 52.0913C49.9441 52.1522 49.9934 52.2246 50.0282 52.3087C50.063 52.3928 50.0804 52.4826 50.0804 52.5783C50.0804 52.6739 50.063 52.7638 50.0282 52.8478C49.9934 52.9319 49.9441 53.0043 49.8804 53.0652C49.8166 53.1261 49.7398 53.1739 49.6499 53.2087C49.5601 53.2464 49.4601 53.2652 49.3499 53.2652C49.0253 53.2652 48.7398 53.213 48.4934 53.1087C48.247 53.0072 48.0369 52.8435 47.863 52.6174C47.7065 52.8174 47.5108 52.9725 47.276 53.0826C47.0412 53.1957 46.7746 53.2522 46.476 53.2522ZM49.1607 52.5739C49.1607 52.4783 49.1795 52.3884 49.2172 52.3043C49.252 52.2203 49.3013 52.1478 49.365 52.087C49.4288 52.0261 49.5027 51.9783 49.5868 51.9435C49.6708 51.9058 49.7593 51.887 49.852 51.887H49.8911H51.3259C51.41 51.887 51.5056 51.8696 51.6129 51.8348C51.723 51.8 51.8274 51.7551 51.9259 51.7C52.0245 51.642 52.11 51.5783 52.1824 51.5087C52.2549 51.4362 52.2969 51.3638 52.3085 51.2913C52.3172 51.1464 52.2911 50.9899 52.2303 50.8217C52.1694 50.6536 52.0839 50.4826 51.9737 50.3087C51.8665 50.1319 51.7419 49.9565 51.5998 49.7826C51.4578 49.6058 51.31 49.4377 51.1564 49.2783C51.0027 49.1188 50.8491 48.971 50.6955 48.8348C50.5419 48.6986 50.3998 48.5812 50.2694 48.4826L50.3868 47.287L54.3824 45.613L54.8868 46.8087L51.5868 48.1565C51.7868 48.342 51.9679 48.5232 52.1303 48.7C52.2926 48.8739 52.4404 49.0478 52.5737 49.2217C52.71 49.3957 52.8332 49.571 52.9433 49.7478C53.0564 49.9246 53.1607 50.1058 53.2564 50.2913L53.2998 50.3696L53.2955 50.3652C53.3621 50.487 53.4274 50.6087 53.4911 50.7304C53.5578 50.8493 53.6288 50.9696 53.7042 51.0913C53.7737 51.2014 53.8491 51.3043 53.9303 51.4C54.0143 51.4928 54.1056 51.5754 54.2042 51.6478C54.3027 51.7203 54.4071 51.7783 54.5172 51.8217C54.6303 51.8623 54.7506 51.8841 54.8781 51.887H54.8737H55.0564C55.152 51.887 55.2419 51.9058 55.3259 51.9435C55.41 51.9783 55.4824 52.0261 55.5433 52.087C55.6071 52.1478 55.6564 52.2203 55.6911 52.3043C55.7259 52.3884 55.7433 52.4783 55.7433 52.5739C55.7433 52.6696 55.7259 52.7594 55.6911 52.8435C55.6564 52.9275 55.6071 53 55.5433 53.0609C55.4824 53.1246 55.41 53.1739 55.3259 53.2087C55.2419 53.2435 55.152 53.2609 55.0564 53.2609H55.0216C54.8013 53.2609 54.6042 53.2464 54.4303 53.2174C54.2593 53.1884 54.0897 53.1464 53.9216 53.0913C53.7477 53.0275 53.5853 52.942 53.4346 52.8348C53.2839 52.7275 53.1433 52.6072 53.0129 52.4739C52.981 52.5145 52.9448 52.5565 52.9042 52.6C52.8636 52.6435 52.823 52.6855 52.7824 52.7261C52.6723 52.8246 52.5564 52.9072 52.4346 52.9739C52.3129 53.0377 52.1882 53.0899 52.0607 53.1304C51.9332 53.1739 51.8027 53.2043 51.6694 53.2217C51.5361 53.242 51.4027 53.2551 51.2694 53.2609H49.852C49.7593 53.2609 49.6708 53.2435 49.5868 53.2087C49.5027 53.1739 49.4288 53.1246 49.365 53.0609C49.3013 53 49.252 52.9275 49.2172 52.8435C49.1795 52.7594 49.1607 52.6696 49.1607 52.5739ZM59.5484 50.387C59.473 50.3464 59.3962 50.3101 59.318 50.2783C59.2426 50.2435 59.1643 50.2116 59.0832 50.1826C58.944 50.1333 58.789 50.0928 58.618 50.0609C58.4469 50.029 58.2701 50.0232 58.0875 50.0435C57.9629 50.058 57.8426 50.0913 57.7266 50.1435C57.6136 50.1957 57.5122 50.2609 57.4223 50.3391C57.3353 50.4145 57.2658 50.5 57.2136 50.5957C57.1614 50.6913 57.1353 50.7884 57.1353 50.887C57.1353 51.0261 57.1788 51.1493 57.2658 51.2565C57.3527 51.3609 57.4629 51.4478 57.5962 51.5174C57.7324 51.587 57.8817 51.6391 58.044 51.6739C58.2064 51.7087 58.3643 51.7232 58.518 51.7174C58.6832 51.7029 58.8542 51.6826 59.031 51.6565C59.2107 51.6304 59.3788 51.6029 59.5353 51.5739C59.6252 51.5594 59.7151 51.5435 59.8049 51.5261C59.8948 51.5087 59.9846 51.4899 60.0745 51.4696L60.2527 52.8217C60.0585 52.8739 59.8411 52.9261 59.6006 52.9783C59.36 53.0275 59.0875 53.0725 58.7832 53.113C58.4788 53.1565 58.1382 53.1899 57.7614 53.213C57.3846 53.2391 56.9643 53.2522 56.5006 53.2522L55.5527 53.2609C55.4571 53.2609 55.3672 53.242 55.2832 53.2043C55.1962 53.1696 55.1223 53.1203 55.0614 53.0565C54.9977 52.9957 54.9484 52.9232 54.9136 52.8391C54.8759 52.7551 54.8571 52.6652 54.8571 52.5696C54.8571 52.4739 54.8759 52.3855 54.9136 52.3043C54.9513 52.2232 55.002 52.1522 55.0658 52.0913C55.1295 52.0304 55.2035 51.9826 55.2875 51.9478C55.3687 51.9101 55.4556 51.8884 55.5484 51.8826L56.2266 51.8739C56.1223 51.7087 56.0498 51.5406 56.0093 51.3696C55.9687 51.1986 55.9498 51.0116 55.9527 50.8087C55.9556 50.5536 56.0122 50.3029 56.1223 50.0565C56.2353 49.8101 56.3875 49.5884 56.5788 49.3913C56.773 49.1942 56.9991 49.0304 57.2571 48.9C57.5151 48.7696 57.7919 48.6928 58.0875 48.6696C58.2353 48.658 58.3774 48.6594 58.5136 48.6739C58.6498 48.6855 58.7788 48.7072 58.9006 48.7391C59.0223 48.7681 59.1368 48.8043 59.244 48.8478C59.3513 48.8884 59.4484 48.9319 59.5353 48.9783C59.6368 49.0333 59.7339 49.0928 59.8266 49.1565C59.9194 49.2174 60.0064 49.2841 60.0875 49.3565L59.5484 50.387Z" fill="#191919"/>
<rect x="155" y="21.5" width="19" height="19" rx="9.5" fill="white"/>
<rect x="155" y="21.5" width="19" height="19" rx="9.5" stroke="#C6C6C6"/>
<path d="M163.331 53.2609C163.064 53.2609 162.805 53.2188 162.553 53.1348C162.544 53.3696 162.512 53.6087 162.457 53.8522C162.402 54.0957 162.322 54.329 162.218 54.5522C162.116 54.7783 161.987 54.987 161.831 55.1783C161.677 55.3696 161.496 55.5319 161.287 55.6652C160.992 55.8565 160.667 56.0014 160.314 56.1C159.963 56.1986 159.561 56.2478 159.109 56.2478C158.605 56.2478 158.171 56.187 157.809 56.0652C157.45 55.9464 157.137 55.7725 156.87 55.5435C156.708 55.3986 156.566 55.2377 156.444 55.0609C156.325 54.887 156.227 54.7014 156.148 54.5043C156.07 54.3101 156.011 54.1058 155.97 53.8913C155.932 53.6797 155.914 53.4638 155.914 53.2435C155.914 52.9942 155.931 52.758 155.966 52.5348C156 52.3087 156.054 52.0826 156.127 51.8565C156.199 51.6304 156.289 51.3986 156.396 51.1609C156.506 50.9232 156.635 50.6667 156.783 50.3913L157.761 51.0957C157.677 51.2464 157.596 51.4159 157.518 51.6043C157.44 51.7899 157.37 51.9826 157.309 52.1826C157.251 52.3797 157.203 52.5768 157.166 52.7739C157.131 52.971 157.114 53.1551 157.114 53.3261C157.114 53.5522 157.169 53.7594 157.279 53.9478C157.389 54.1362 157.534 54.2971 157.714 54.4304C157.896 54.5667 158.103 54.6725 158.335 54.7478C158.567 54.8261 158.806 54.8667 159.053 54.8696C159.392 54.8754 159.702 54.8478 159.983 54.787C160.264 54.729 160.506 54.6348 160.709 54.5043C160.912 54.3739 161.069 54.2058 161.179 54C161.292 53.7942 161.348 53.5464 161.348 53.2565C161.348 53.0884 161.324 52.9101 161.274 52.7217C161.225 52.5304 161.16 52.3333 161.079 52.1304C161 51.9246 160.908 51.7145 160.8 51.5C160.696 51.2826 160.587 51.0609 160.474 50.8348L161.661 50.0826L162.1 50.9304C162.219 51.171 162.334 51.3565 162.444 51.487C162.557 51.6145 162.666 51.7087 162.77 51.7696C162.874 51.8275 162.973 51.8623 163.066 51.8739C163.161 51.8826 163.25 51.887 163.331 51.887C163.427 51.887 163.516 51.9043 163.6 51.9391C163.685 51.9739 163.757 52.0232 163.818 52.087C163.882 52.1478 163.931 52.2203 163.966 52.3043C164.003 52.3884 164.022 52.4783 164.022 52.5739C164.022 52.6696 164.003 52.7594 163.966 52.8435C163.931 52.9275 163.882 53 163.818 53.0609C163.757 53.1217 163.685 53.1696 163.6 53.2043C163.516 53.242 163.427 53.2609 163.331 53.2609ZM159.183 49.0652L160.148 50.0304L159.183 50.9957L158.218 50.0304L159.183 49.0652ZM163.143 52.5739C163.143 52.4783 163.16 52.3884 163.195 52.3043C163.23 52.2203 163.279 52.1478 163.343 52.087C163.404 52.0232 163.476 51.9739 163.56 51.9391C163.644 51.9043 163.734 51.887 163.83 51.887H164.16C164.369 51.887 164.569 51.8783 164.76 51.8609C164.955 51.8435 165.126 51.8072 165.273 51.7522C165.421 51.6942 165.54 51.6145 165.63 51.513C165.723 51.4087 165.772 51.271 165.778 51.1C165.781 51.0362 165.781 50.9841 165.778 50.9435C165.778 50.9 165.77 50.8493 165.756 50.7913C165.742 50.7304 165.72 50.6522 165.691 50.5565C165.665 50.458 165.627 50.3203 165.578 50.1435L166.843 49.787C166.898 49.9261 166.949 50.1101 166.995 50.3391C167.042 50.5681 167.076 50.8188 167.099 51.0913C167.105 51.1783 167.115 51.2681 167.13 51.3609C167.144 51.4536 167.168 51.5391 167.199 51.6174C167.234 51.6957 167.281 51.7609 167.339 51.813C167.397 51.8623 167.472 51.887 167.565 51.887C167.66 51.887 167.75 51.9043 167.834 51.9391C167.918 51.9739 167.991 52.0232 168.052 52.087C168.115 52.1478 168.165 52.2203 168.199 52.3043C168.237 52.3884 168.256 52.4783 168.256 52.5739C168.256 52.6696 168.237 52.7594 168.199 52.8435C168.165 52.9275 168.115 53 168.052 53.0609C167.988 53.1246 167.914 53.1739 167.83 53.2087C167.749 53.2435 167.662 53.2609 167.569 53.2609C167.291 53.2609 167.052 53.2174 166.852 53.1304C166.655 53.0464 166.485 52.9362 166.343 52.8C166.213 52.887 166.062 52.9594 165.891 53.0174C165.723 53.0754 165.543 53.1217 165.352 53.1565C165.16 53.1942 164.963 53.2203 164.76 53.2348C164.557 53.2522 164.357 53.2609 164.16 53.2609H163.83C163.734 53.2609 163.644 53.2435 163.56 53.2087C163.476 53.1739 163.404 53.1246 163.343 53.0609C163.279 53 163.23 52.9275 163.195 52.8435C163.16 52.7594 163.143 52.6696 163.143 52.5739ZM167.46 48.3826L166.626 49.2217L165.799 48.3957L164.982 49.213L164.139 48.3739L164.973 47.5348L165.799 48.3609L166.617 47.5435L167.46 48.3826ZM167.457 52.5739C167.457 52.4783 167.474 52.3899 167.509 52.3087C167.544 52.2275 167.592 52.1565 167.653 52.0957C167.714 52.0348 167.786 51.987 167.87 51.9522C167.951 51.9145 168.04 51.8928 168.135 51.887C168.33 51.887 168.498 51.8493 168.64 51.7739C168.785 51.6986 168.912 51.6 169.022 51.4783C169.132 51.3565 169.231 51.2203 169.318 51.0696C169.405 50.9188 169.487 50.7681 169.566 50.6174V50.6217C169.641 50.4652 169.721 50.3101 169.805 50.1565C169.892 50.0029 169.986 49.8609 170.087 49.7304C170.244 49.5478 170.419 49.4072 170.614 49.3087C170.808 49.2072 171.015 49.1565 171.235 49.1565C171.496 49.1565 171.732 49.2101 171.944 49.3174C172.158 49.4246 172.353 49.5783 172.527 49.7783C172.657 49.9348 172.763 50.1145 172.844 50.3174C172.925 50.5174 172.979 50.7304 173.005 50.9565V50.9478C173.022 51.0609 173.031 51.1899 173.031 51.3348C173.031 51.4913 173.016 51.6449 172.987 51.7957C172.961 51.9435 172.924 52.0841 172.874 52.2174C172.779 52.4609 172.641 52.6652 172.461 52.8304C172.285 52.9928 172.092 53.1043 171.883 53.1652C171.814 53.1855 171.744 53.1986 171.674 53.2043C171.608 53.213 171.537 53.2174 171.461 53.2174C171.331 53.2174 171.192 53.2014 171.044 53.1696C170.899 53.1377 170.756 53.0942 170.614 53.0391C170.556 53.013 170.49 52.9826 170.418 52.9478C170.345 52.9101 170.269 52.8696 170.187 52.8261C170.109 52.7826 170.031 52.7377 169.953 52.6913C169.874 52.6449 169.802 52.6 169.735 52.5565C169.619 52.6638 169.503 52.7609 169.387 52.8478C169.272 52.9348 169.15 53.0087 169.022 53.0696C168.895 53.1304 168.758 53.1768 168.614 53.2087C168.469 53.2435 168.311 53.2609 168.14 53.2609C168.044 53.2609 167.956 53.242 167.874 53.2043C167.79 53.1696 167.718 53.1217 167.657 53.0609C167.593 53 167.544 52.9275 167.509 52.8435C167.474 52.7594 167.457 52.6696 167.457 52.5739ZM170.54 51.4304C170.63 51.4884 170.735 51.5449 170.857 51.6C170.982 51.6551 171.105 51.7043 171.227 51.7478C171.348 51.7913 171.46 51.8275 171.561 51.8565C171.666 51.8826 171.744 51.8957 171.796 51.8957C171.808 51.8957 171.819 51.8957 171.831 51.8957C171.845 51.8928 171.86 51.8899 171.874 51.887C171.909 51.8783 171.943 51.8348 171.974 51.7565C172.009 51.6754 172.022 51.5652 172.014 51.4261C172.014 51.3333 171.987 51.2319 171.935 51.1217C171.883 51.0087 171.815 50.9043 171.731 50.8087C171.647 50.7101 171.55 50.629 171.44 50.5652C171.332 50.4986 171.222 50.4652 171.109 50.4652C171.069 50.4652 171.016 50.5232 170.953 50.6391C170.889 50.7551 170.796 50.9275 170.674 51.1565V51.1522L170.54 51.4304Z" fill="#6F6F6F"/>
<rect x="271" y="21.5" width="19" height="19" rx="9.5" fill="white"/>
<rect x="271" y="21.5" width="19" height="19" rx="9.5" stroke="#C6C6C6"/>
<path d="M268.933 53.2087C268.497 53.2087 268.106 53.182 267.76 53.1287C267.417 53.0777 267.116 53.0035 266.856 52.9061C266.33 52.702 265.968 52.4029 265.771 52.0087V52.0122C265.66 51.7965 265.604 51.5577 265.604 51.2957C265.604 51.182 265.618 51.0591 265.646 50.927C265.673 50.7948 265.709 50.6661 265.753 50.5409C265.809 50.3948 265.869 50.2661 265.934 50.1548C265.999 50.0412 266.066 49.9217 266.136 49.7965L266.953 50.4817C266.919 50.5304 266.878 50.5942 266.832 50.673C266.785 50.7496 266.74 50.8307 266.696 50.9165C266.654 51.0023 266.618 51.0893 266.588 51.1774C266.56 51.2632 266.546 51.3386 266.546 51.4035C266.546 51.4499 266.553 51.4881 266.567 51.5183C266.614 51.6133 266.705 51.6968 266.842 51.7687C266.981 51.8406 267.155 51.902 267.364 51.953C267.573 52.0017 267.81 52.0388 268.077 52.0643C268.344 52.0899 268.629 52.1026 268.933 52.1026C269.097 52.1026 269.284 52.0945 269.493 52.0783C269.704 52.062 269.92 52.0365 270.143 52.0017C270.366 51.9646 270.587 51.9183 270.807 51.8626C271.028 51.8046 271.229 51.7351 271.413 51.6539C271.385 51.5449 271.351 51.4406 271.312 51.3409C271.275 51.2412 271.228 51.138 271.173 51.0313C271.117 50.9223 271.051 50.8064 270.974 50.6835C270.898 50.5606 270.807 50.4203 270.703 50.2626L271.559 49.7061C271.6 49.7733 271.649 49.8557 271.705 49.953C271.76 50.0504 271.816 50.1559 271.872 50.2696C271.93 50.3809 271.985 50.4991 272.039 50.6243C272.094 50.7496 272.143 50.8748 272.185 51C272.229 51.1252 272.262 51.2481 272.286 51.3687C272.309 51.487 272.318 51.5983 272.313 51.7026C272.302 51.8974 272.235 52.0701 272.112 52.2209C271.989 52.3693 271.831 52.4991 271.639 52.6104C271.449 52.7217 271.233 52.8157 270.992 52.8922C270.753 52.9687 270.509 53.0301 270.261 53.0765C270.015 53.1229 269.777 53.1565 269.545 53.1774C269.313 53.1983 269.109 53.2087 268.933 53.2087ZM270.359 49.56L269.691 50.2313L269.03 49.5704L268.376 50.2243L267.701 49.553L268.369 48.8817L269.03 49.5426L269.684 48.8887L270.359 49.56ZM275.134 53.2087C274.849 53.2087 274.605 53.1728 274.401 53.1009C274.196 53.0313 274.02 52.9235 273.872 52.7774C273.779 52.6846 273.707 52.5872 273.656 52.4852C273.607 52.3832 273.572 52.2835 273.548 52.1861C273.527 52.0864 273.515 51.9925 273.51 51.9043C273.508 51.8162 273.507 51.7409 273.507 51.6783V51.6261C273.509 51.5403 273.511 51.4174 273.514 51.2574C273.518 51.0951 273.521 50.9049 273.521 50.687C273.521 50.469 273.519 50.229 273.517 49.967C273.515 49.7049 273.508 49.4441 273.496 49.1843C273.487 48.9223 273.472 48.6707 273.451 48.4296C273.432 48.1884 273.406 47.9786 273.371 47.8L274.411 47.4835C274.441 47.6365 274.465 47.8174 274.484 48.0261C274.503 48.2325 274.518 48.4493 274.529 48.6765C274.543 48.9038 274.552 49.1322 274.557 49.3617C274.564 49.5913 274.569 49.8046 274.571 50.0017C274.573 50.1757 274.566 50.3461 274.55 50.513C274.536 50.6777 274.525 50.84 274.515 51C274.506 51.1577 274.506 51.3119 274.515 51.4626C274.527 51.611 274.559 51.7559 274.613 51.8974C274.634 51.9507 274.659 51.9913 274.689 52.0191C274.722 52.047 274.759 52.0678 274.801 52.0817C274.842 52.0933 274.887 52.1003 274.936 52.1026C274.987 52.1049 275.043 52.1061 275.103 52.1061H275.134C275.209 52.1061 275.279 52.1212 275.347 52.1513C275.414 52.1814 275.472 52.222 275.521 52.273C275.572 52.3217 275.612 52.3797 275.642 52.447C275.672 52.5142 275.687 52.5849 275.687 52.6591C275.687 52.7357 275.672 52.8075 275.642 52.8748C275.612 52.942 275.572 53 275.521 53.0487C275.472 53.0997 275.414 53.1391 275.347 53.167C275.279 53.1948 275.209 53.2087 275.134 53.2087ZM278.502 52.2139C278.576 52.1954 278.62 52.0991 278.634 51.9252C278.648 51.7443 278.614 51.582 278.533 51.4383C278.461 51.3061 278.352 51.1913 278.206 51.0939C278.06 50.9965 277.95 50.9629 277.876 50.993C277.776 51.0348 277.625 51.2922 277.424 51.7652C278.006 52.0991 278.365 52.2487 278.502 52.2139ZM280.258 52.6591C280.258 52.8099 280.205 52.9386 280.098 53.0452C279.989 53.1519 279.86 53.2064 279.709 53.2087H279.705C279.413 53.2087 279.177 53.109 278.996 52.9096C278.806 53.0997 278.563 53.1948 278.269 53.1948C277.928 53.1948 277.433 53.0232 276.784 52.68C276.742 52.7681 276.662 52.8574 276.544 52.9478C276.439 53.0267 276.32 53.0881 276.185 53.1322C276.016 53.1878 275.826 53.2157 275.615 53.2157C275.462 53.2157 275.332 53.1623 275.225 53.0557C275.119 52.949 275.065 52.8191 275.065 52.6661C275.065 52.5154 275.119 52.3867 275.225 52.28C275.332 52.1733 275.462 52.12 275.615 52.12C275.905 52.12 276.158 51.9762 276.373 51.6887C276.45 51.5843 276.531 51.4487 276.617 51.2817C276.642 51.2307 276.677 51.1612 276.721 51.073L276.77 50.9687L276.818 50.8713C277.132 50.2499 277.522 49.9391 277.991 49.9391C278.332 49.9391 278.633 50.0528 278.895 50.28C279.192 50.5374 279.36 50.891 279.399 51.3409L279.403 51.3722C279.407 51.3861 279.41 51.4023 279.41 51.4209C279.414 51.5345 279.431 51.6493 279.458 51.7652C279.484 51.8649 279.514 51.9438 279.549 52.0017C279.595 52.0736 279.649 52.1096 279.709 52.1096C279.86 52.1096 279.988 52.1629 280.095 52.2696C280.204 52.3762 280.258 52.5061 280.258 52.6591ZM279.664 52.6591C279.664 52.5826 279.678 52.5107 279.706 52.4435C279.734 52.3762 279.773 52.3183 279.824 52.2696C279.873 52.2186 279.931 52.1791 279.998 52.1513C280.066 52.1235 280.137 52.1096 280.214 52.1096H280.478C280.645 52.1096 280.805 52.1026 280.958 52.0887C281.114 52.0748 281.25 52.0458 281.369 52.0017C281.487 51.9554 281.582 51.8916 281.654 51.8104C281.728 51.727 281.768 51.6168 281.772 51.48C281.775 51.429 281.775 51.3872 281.772 51.3548C281.772 51.32 281.766 51.2794 281.755 51.233C281.743 51.1843 281.726 51.1217 281.703 51.0452C281.682 50.9664 281.652 50.8562 281.612 50.7148L282.624 50.4296C282.668 50.5409 282.709 50.6881 282.746 50.8713C282.783 51.0545 282.811 51.2551 282.83 51.473C282.834 51.5426 282.842 51.6145 282.854 51.6887C282.866 51.7629 282.884 51.8313 282.91 51.8939C282.937 51.9565 282.975 52.0087 283.021 52.0504C283.067 52.0899 283.128 52.1096 283.202 52.1096C283.278 52.1096 283.35 52.1235 283.417 52.1513C283.485 52.1791 283.543 52.2186 283.591 52.2696C283.642 52.3183 283.682 52.3762 283.71 52.4435C283.74 52.5107 283.755 52.5826 283.755 52.6591C283.755 52.7357 283.74 52.8075 283.71 52.8748C283.682 52.942 283.642 53 283.591 53.0487C283.54 53.0997 283.481 53.1391 283.414 53.167C283.349 53.1948 283.279 53.2087 283.205 53.2087C282.983 53.2087 282.791 53.1739 282.631 53.1043C282.474 53.0371 282.338 52.949 282.224 52.84C282.12 52.9096 281.999 52.9675 281.863 53.0139C281.728 53.0603 281.584 53.0974 281.431 53.1252C281.278 53.1554 281.121 53.1762 280.958 53.1878C280.796 53.2017 280.636 53.2087 280.478 53.2087H280.214C280.137 53.2087 280.066 53.1948 279.998 53.167C279.931 53.1391 279.873 53.0997 279.824 53.0487C279.773 53 279.734 52.942 279.706 52.8748C279.678 52.8075 279.664 52.7357 279.664 52.6591ZM282.993 54.4574L282.325 55.1287L281.664 54.4678L281.01 55.1217L280.336 54.4504L281.003 53.7791L281.664 54.44L282.318 53.7861L282.993 54.4574ZM283.167 52.6591C283.167 52.5849 283.182 52.5154 283.212 52.4504C283.242 52.3832 283.283 52.3241 283.334 52.273C283.383 52.222 283.441 52.1826 283.508 52.1548C283.575 52.1246 283.646 52.1096 283.72 52.1096H284.124C284.163 52.0423 284.217 51.9519 284.287 51.8383C284.357 51.7246 284.447 51.5983 284.558 51.4591C284.577 51.313 284.593 51.1333 284.607 50.92C284.621 50.7067 284.629 50.4748 284.631 50.2243C284.631 50.1316 284.63 50.0423 284.628 49.9565C284.628 49.8707 284.626 49.7803 284.621 49.6852C284.619 49.5878 284.613 49.4823 284.604 49.3687C284.597 49.2528 284.587 49.1194 284.576 48.9687C284.564 48.818 284.549 48.6452 284.53 48.4504C284.512 48.2557 284.49 48.0307 284.464 47.7757L285.584 47.4904C285.617 47.7293 285.644 47.96 285.664 48.1826C285.688 48.4052 285.705 48.6278 285.717 48.8504C285.73 49.073 285.74 49.2991 285.744 49.5287C285.751 49.7559 285.755 49.9936 285.755 50.2417C285.875 50.1467 285.999 50.0574 286.127 49.9739C286.257 49.8881 286.39 49.8139 286.527 49.7513C286.666 49.6887 286.81 49.64 286.958 49.6052C287.107 49.5681 287.263 49.5496 287.428 49.5496C287.618 49.5496 287.798 49.5797 287.967 49.64C288.136 49.7003 288.286 49.7872 288.416 49.9009C288.548 50.0145 288.656 50.1525 288.739 50.3148C288.825 50.4771 288.878 50.6603 288.899 50.8643C288.908 51.1171 288.881 51.3467 288.816 51.553C288.753 51.7571 288.663 51.9426 288.544 52.1096H289.244C289.32 52.1096 289.392 52.1235 289.459 52.1513C289.526 52.1791 289.584 52.2174 289.633 52.2661C289.684 52.3148 289.724 52.3728 289.751 52.44C289.779 52.5072 289.793 52.5791 289.793 52.6557C289.793 52.7322 289.779 52.8041 289.751 52.8713C289.724 52.9386 289.684 52.9965 289.633 53.0452C289.584 53.0962 289.526 53.1357 289.459 53.1635C289.392 53.1936 289.319 53.2087 289.24 53.2087H288.381C288.198 53.2087 287.994 53.2006 287.769 53.1843C287.546 53.1704 287.298 53.1287 287.024 53.0591C286.827 53.1125 286.627 53.1507 286.423 53.1739C286.219 53.1994 286.015 53.2122 285.81 53.2122L283.751 53.2087H283.72C283.646 53.2087 283.575 53.1948 283.508 53.167C283.441 53.1391 283.383 53.1009 283.334 53.0522C283.283 53.0035 283.242 52.9455 283.212 52.8783C283.182 52.811 283.167 52.738 283.167 52.6591ZM285.41 52.1096C285.547 52.1096 285.707 52.1061 285.89 52.0991C286.076 52.0922 286.267 52.0771 286.464 52.0539C286.661 52.0307 286.855 51.9971 287.045 51.953C287.235 51.9067 287.405 51.8452 287.553 51.7687C287.701 51.6899 287.82 51.5925 287.908 51.4765C287.996 51.3606 288.035 51.2203 288.026 51.0557C288.021 51.0046 287.996 50.9559 287.95 50.9096C287.903 50.8632 287.843 50.8226 287.769 50.7878C287.695 50.753 287.611 50.7252 287.518 50.7043C287.426 50.6835 287.332 50.673 287.237 50.673C287.132 50.68 287.002 50.7101 286.847 50.7635C286.694 50.8145 286.529 50.8957 286.353 51.007C286.177 51.1183 285.995 51.2643 285.807 51.4452C285.621 51.6238 285.443 51.8452 285.271 52.1096H285.41ZM287.386 47.5113L288.158 48.2835L287.386 49.0557L286.614 48.2835L287.386 47.5113ZM289.142 52.6591C289.142 52.5826 289.156 52.5107 289.184 52.4435C289.211 52.3762 289.251 52.3183 289.302 52.2696C289.351 52.2209 289.409 52.1826 289.476 52.1548C289.543 52.1246 289.615 52.1096 289.691 52.1096H289.751C290.073 52.1096 290.316 52.0586 290.481 51.9565C290.646 51.8522 290.728 51.6945 290.728 51.4835C290.728 51.4417 290.728 51.4046 290.728 51.3722C290.73 51.3397 290.727 51.298 290.717 51.247C290.711 51.1936 290.695 51.1252 290.672 51.0417C290.651 50.9559 290.619 50.8388 290.575 50.6904L291.566 50.4504C291.615 50.5896 291.658 50.7461 291.695 50.92C291.732 51.0916 291.751 51.2794 291.751 51.4835C291.751 51.5507 291.756 51.6214 291.768 51.6957C291.782 51.7675 291.803 51.8348 291.831 51.8974C291.861 51.9577 291.9 52.0087 291.949 52.0504C292 52.0899 292.064 52.1096 292.14 52.1096C292.214 52.1096 292.285 52.1246 292.352 52.1548C292.42 52.1826 292.477 52.2209 292.526 52.2696C292.577 52.3183 292.618 52.3762 292.648 52.4435C292.678 52.5107 292.693 52.5826 292.693 52.6591C292.693 52.7357 292.678 52.8075 292.648 52.8748C292.62 52.942 292.581 53 292.53 53.0487C292.479 53.0997 292.42 53.1391 292.352 53.167C292.287 53.1948 292.218 53.2087 292.144 53.2087C291.921 53.2087 291.731 53.1762 291.573 53.1113C291.415 53.0487 291.28 52.9641 291.166 52.8574C290.999 52.978 290.8 53.0661 290.568 53.1217C290.338 53.1797 290.066 53.2087 289.751 53.2087H289.691C289.615 53.2087 289.543 53.1948 289.476 53.167C289.409 53.1391 289.351 53.0997 289.302 53.0487C289.251 53 289.211 52.942 289.184 52.8748C289.156 52.8075 289.142 52.7357 289.142 52.6591ZM291.044 48.3357L291.817 49.1078L291.044 49.88L290.272 49.1078L291.044 48.3357ZM295.451 48.6696L294.784 49.3409L294.123 48.68L293.469 49.3339L292.794 48.6626L293.462 47.9913L294.123 48.6522L294.777 47.9983L295.451 48.6696ZM291.97 52.6591C291.97 52.5826 291.985 52.5107 292.015 52.4435C292.043 52.3762 292.081 52.3183 292.13 52.2696C292.178 52.2186 292.236 52.1791 292.304 52.1513C292.371 52.1235 292.443 52.1096 292.519 52.1096H292.905H293.072C293.177 52.1096 293.291 52.1049 293.417 52.0957C293.542 52.0864 293.663 52.0713 293.778 52.0504C293.894 52.0296 293.999 52.0017 294.091 51.967C294.187 51.9299 294.256 51.8835 294.3 51.8278C294.326 51.7884 294.338 51.7351 294.338 51.6678C294.338 51.5681 294.314 51.4499 294.265 51.313C294.219 51.1762 294.163 51.0371 294.098 50.8957C294.034 50.7542 293.966 50.6186 293.897 50.4887C293.829 50.3588 293.775 50.251 293.733 50.1652L294.725 49.6783C294.796 49.8035 294.866 49.9519 294.933 50.1235C295 50.2928 295.061 50.4678 295.114 50.6487C295.167 50.8272 295.21 51.0035 295.243 51.1774C295.275 51.349 295.291 51.4986 295.291 51.6261C295.291 51.8603 295.25 52.0748 295.166 52.2696C295.069 52.4875 294.936 52.6684 294.766 52.8122C294.597 52.9536 294.394 53.058 294.158 53.1252C294.088 53.1438 294.001 53.1588 293.897 53.1704C293.792 53.182 293.687 53.1901 293.58 53.1948C293.474 53.2017 293.373 53.2052 293.278 53.2052C293.183 53.2075 293.108 53.2087 293.055 53.2087H292.551H292.519C292.443 53.2087 292.371 53.1948 292.304 53.167C292.236 53.1391 292.178 53.0997 292.13 53.0487C292.081 53 292.043 52.942 292.015 52.8748C291.985 52.8075 291.97 52.7357 291.97 52.6591Z" fill="#6F6F6F"/>
</svg>
