<svg width="321" height="80" viewBox="0 0 321 80" fill="none" xmlns="http://www.w3.org/2000/svg">
<rect x="48.75" y="31.25" width="55.5" height="0.5" fill="#0043CE"/>
<rect x="48.75" y="31.25" width="55.5" height="0.5" stroke="#191919" stroke-width="0.5"/>
<rect x="104.75" y="31.25" width="55.5" height="0.5" fill="#0043CE"/>
<rect x="104.75" y="31.25" width="55.5" height="0.5" stroke="#191919" stroke-width="0.5"/>
<rect width="56" height="1" transform="translate(160.5 31)" fill="#C6C6C6"/>
<rect width="56" height="1" transform="translate(216.5 31)" fill="#C6C6C6"/>
<rect x="38.5" y="21" width="20" height="20" rx="10" fill="#191919"/>
<path d="M47.5535 33.3867C47.4201 33.3867 47.2935 33.3334 47.2001 33.2401L45.3135 31.3534C45.1201 31.1601 45.1201 30.8401 45.3135 30.6467C45.5068 30.4534 45.8268 30.4534 46.0201 30.6467L47.5535 32.1801L50.9801 28.7534C51.1735 28.5601 51.4935 28.5601 51.6868 28.7534C51.8801 28.9467 51.8801 29.2667 51.6868 29.4601L47.9068 33.2401C47.8135 33.3334 47.6868 33.3867 47.5535 33.3867Z" fill="white"/>
<path d="M46.476 53.2522C46.2267 53.2522 46.0166 53.2043 45.8456 53.1087C45.6775 53.013 45.5383 52.8928 45.4282 52.7478C45.3673 52.8261 45.3021 52.8971 45.2325 52.9609C45.163 53.0217 45.0804 53.0739 44.9847 53.1174C44.892 53.1638 44.7818 53.1986 44.6543 53.2217C44.5296 53.2449 44.3804 53.2565 44.2065 53.2565C44.0847 53.2565 43.9731 53.2478 43.8717 53.2304C43.7702 53.213 43.6775 53.1913 43.5934 53.1652C43.5905 53.5043 43.5383 53.813 43.4369 54.0913C43.3383 54.3696 43.2021 54.6188 43.0282 54.8391C42.8572 55.0594 42.6557 55.2507 42.4238 55.413C42.192 55.5754 41.9427 55.7087 41.676 55.813C41.4094 55.9203 41.1296 56 40.8369 56.0522C40.547 56.1043 40.2586 56.1304 39.9717 56.1304C39.5282 56.1304 39.118 56.0565 38.7412 55.9087C38.3644 55.7638 38.0383 55.558 37.763 55.2913C37.4905 55.0275 37.2775 54.7087 37.1238 54.3348C36.9702 53.9638 36.8934 53.5536 36.8934 53.1043C36.9021 52.8435 36.9369 52.5768 36.9978 52.3043C37.0615 52.0319 37.1412 51.7652 37.2369 51.5043C37.3354 51.2435 37.4441 50.9957 37.563 50.7609C37.6847 50.5232 37.8079 50.3101 37.9325 50.1217L38.8804 50.8478C38.776 51.0188 38.676 51.2 38.5804 51.3913C38.4847 51.5826 38.4007 51.7768 38.3282 51.9739C38.2586 52.1681 38.2021 52.3638 38.1586 52.5609C38.1151 52.758 38.0934 52.9478 38.0934 53.1304C38.0847 53.3507 38.1267 53.558 38.2195 53.7522C38.3151 53.9493 38.447 54.1203 38.6151 54.2652C38.7862 54.413 38.9862 54.529 39.2151 54.613C39.4441 54.7 39.6905 54.7435 39.9543 54.7435C40.1543 54.7435 40.3528 54.729 40.5499 54.7C40.7499 54.6739 40.9398 54.629 41.1195 54.5652C41.3021 54.5043 41.4717 54.4246 41.6282 54.3261C41.7847 54.2304 41.9195 54.113 42.0325 53.9739C42.1485 53.8348 42.2383 53.6725 42.3021 53.487C42.3688 53.3043 42.4021 53.0957 42.4021 52.8609C42.4021 52.687 42.376 52.5058 42.3238 52.3174C42.2717 52.1261 42.2021 51.9319 42.1151 51.7348C42.0311 51.5348 41.934 51.3319 41.8238 51.1261C41.7166 50.9203 41.605 50.7145 41.4891 50.5087L42.6934 49.8652C42.7978 50.1145 42.9065 50.3594 43.0195 50.6C43.1325 50.8406 43.2499 51.0565 43.3717 51.2478C43.4934 51.4362 43.6195 51.5884 43.7499 51.7043C43.8804 51.8174 44.0151 51.871 44.1543 51.8652C44.2702 51.8623 44.3615 51.8304 44.4282 51.7696C44.4978 51.7087 44.5514 51.629 44.5891 51.5304C44.6267 51.4319 44.6514 51.3188 44.663 51.1913C44.6746 51.0638 44.6804 50.9304 44.6804 50.7913C44.6775 50.6696 44.6731 50.5449 44.6673 50.4174C44.6615 50.287 44.6572 50.1609 44.6543 50.0391L45.8891 49.8696C45.8891 49.9507 45.892 50.058 45.8978 50.1913C45.9065 50.3217 45.9195 50.4623 45.9369 50.613C45.9572 50.7638 45.9833 50.9159 46.0151 51.0696C46.0499 51.2232 46.0934 51.3623 46.1456 51.487C46.1978 51.6087 46.2601 51.7087 46.3325 51.787C46.405 51.8652 46.4905 51.9043 46.5891 51.9043C46.6847 51.9043 46.7688 51.8609 46.8412 51.7739C46.9166 51.6841 46.9789 51.5696 47.0282 51.4304C47.0804 51.2913 47.118 51.1377 47.1412 50.9696C47.1673 50.7986 47.1804 50.6319 47.1804 50.4696C47.1804 50.4058 47.1789 50.3609 47.176 50.3348C47.176 50.3058 47.176 50.2812 47.176 50.2609C47.176 50.2377 47.1746 50.2116 47.1717 50.1826C47.1717 50.1507 47.1717 50.1 47.1717 50.0304L48.3499 49.8609L48.3804 50.2043V50.2C48.3862 50.2754 48.392 50.3449 48.3978 50.4087C48.4065 50.4725 48.4151 50.5391 48.4238 50.6087C48.4325 50.6754 48.4427 50.7478 48.4543 50.8261C48.4659 50.9043 48.4789 50.9957 48.4934 51.1C48.5108 51.2333 48.5485 51.3493 48.6065 51.4478C48.6644 51.5464 48.7325 51.629 48.8108 51.6957C48.8891 51.7594 48.9717 51.8072 49.0586 51.8391C49.1456 51.871 49.2282 51.887 49.3065 51.887H49.3586C49.4659 51.887 49.563 51.9058 49.6499 51.9435C49.7398 51.9783 49.8166 52.0275 49.8804 52.0913C49.9441 52.1522 49.9934 52.2246 50.0282 52.3087C50.063 52.3928 50.0804 52.4826 50.0804 52.5783C50.0804 52.6739 50.063 52.7638 50.0282 52.8478C49.9934 52.9319 49.9441 53.0043 49.8804 53.0652C49.8166 53.1261 49.7398 53.1739 49.6499 53.2087C49.5601 53.2464 49.4601 53.2652 49.3499 53.2652C49.0253 53.2652 48.7398 53.213 48.4934 53.1087C48.247 53.0072 48.0369 52.8435 47.863 52.6174C47.7065 52.8174 47.5108 52.9725 47.276 53.0826C47.0412 53.1957 46.7746 53.2522 46.476 53.2522ZM49.1607 52.5739C49.1607 52.4783 49.1795 52.3884 49.2172 52.3043C49.252 52.2203 49.3013 52.1478 49.365 52.087C49.4288 52.0261 49.5027 51.9783 49.5868 51.9435C49.6708 51.9058 49.7593 51.887 49.852 51.887H49.8911H51.3259C51.41 51.887 51.5056 51.8696 51.6129 51.8348C51.723 51.8 51.8274 51.7551 51.9259 51.7C52.0245 51.642 52.11 51.5783 52.1824 51.5087C52.2549 51.4362 52.2969 51.3638 52.3085 51.2913C52.3172 51.1464 52.2911 50.9899 52.2303 50.8217C52.1694 50.6536 52.0839 50.4826 51.9737 50.3087C51.8665 50.1319 51.7419 49.9565 51.5998 49.7826C51.4578 49.6058 51.31 49.4377 51.1564 49.2783C51.0027 49.1188 50.8491 48.971 50.6955 48.8348C50.5419 48.6986 50.3998 48.5812 50.2694 48.4826L50.3868 47.287L54.3824 45.613L54.8868 46.8087L51.5868 48.1565C51.7868 48.342 51.9679 48.5232 52.1303 48.7C52.2926 48.8739 52.4404 49.0478 52.5737 49.2217C52.71 49.3957 52.8332 49.571 52.9433 49.7478C53.0564 49.9246 53.1607 50.1058 53.2564 50.2913L53.2998 50.3696L53.2955 50.3652C53.3621 50.487 53.4274 50.6087 53.4911 50.7304C53.5578 50.8493 53.6288 50.9696 53.7042 51.0913C53.7737 51.2014 53.8491 51.3043 53.9303 51.4C54.0143 51.4928 54.1056 51.5754 54.2042 51.6478C54.3027 51.7203 54.4071 51.7783 54.5172 51.8217C54.6303 51.8623 54.7506 51.8841 54.8781 51.887H54.8737H55.0564C55.152 51.887 55.2419 51.9058 55.3259 51.9435C55.41 51.9783 55.4824 52.0261 55.5433 52.087C55.6071 52.1478 55.6564 52.2203 55.6911 52.3043C55.7259 52.3884 55.7433 52.4783 55.7433 52.5739C55.7433 52.6696 55.7259 52.7594 55.6911 52.8435C55.6564 52.9275 55.6071 53 55.5433 53.0609C55.4824 53.1246 55.41 53.1739 55.3259 53.2087C55.2419 53.2435 55.152 53.2609 55.0564 53.2609H55.0216C54.8013 53.2609 54.6042 53.2464 54.4303 53.2174C54.2593 53.1884 54.0897 53.1464 53.9216 53.0913C53.7477 53.0275 53.5853 52.942 53.4346 52.8348C53.2839 52.7275 53.1433 52.6072 53.0129 52.4739C52.981 52.5145 52.9448 52.5565 52.9042 52.6C52.8636 52.6435 52.823 52.6855 52.7824 52.7261C52.6723 52.8246 52.5564 52.9072 52.4346 52.9739C52.3129 53.0377 52.1882 53.0899 52.0607 53.1304C51.9332 53.1739 51.8027 53.2043 51.6694 53.2217C51.5361 53.242 51.4027 53.2551 51.2694 53.2609H49.852C49.7593 53.2609 49.6708 53.2435 49.5868 53.2087C49.5027 53.1739 49.4288 53.1246 49.365 53.0609C49.3013 53 49.252 52.9275 49.2172 52.8435C49.1795 52.7594 49.1607 52.6696 49.1607 52.5739ZM59.5484 50.387C59.473 50.3464 59.3962 50.3101 59.318 50.2783C59.2426 50.2435 59.1643 50.2116 59.0832 50.1826C58.944 50.1333 58.789 50.0928 58.618 50.0609C58.4469 50.029 58.2701 50.0232 58.0875 50.0435C57.9629 50.058 57.8426 50.0913 57.7266 50.1435C57.6136 50.1957 57.5122 50.2609 57.4223 50.3391C57.3353 50.4145 57.2658 50.5 57.2136 50.5957C57.1614 50.6913 57.1353 50.7884 57.1353 50.887C57.1353 51.0261 57.1788 51.1493 57.2658 51.2565C57.3527 51.3609 57.4629 51.4478 57.5962 51.5174C57.7324 51.587 57.8817 51.6391 58.044 51.6739C58.2064 51.7087 58.3643 51.7232 58.518 51.7174C58.6832 51.7029 58.8542 51.6826 59.031 51.6565C59.2107 51.6304 59.3788 51.6029 59.5353 51.5739C59.6252 51.5594 59.7151 51.5435 59.8049 51.5261C59.8948 51.5087 59.9846 51.4899 60.0745 51.4696L60.2527 52.8217C60.0585 52.8739 59.8411 52.9261 59.6006 52.9783C59.36 53.0275 59.0875 53.0725 58.7832 53.113C58.4788 53.1565 58.1382 53.1899 57.7614 53.213C57.3846 53.2391 56.9643 53.2522 56.5006 53.2522L55.5527 53.2609C55.4571 53.2609 55.3672 53.242 55.2832 53.2043C55.1962 53.1696 55.1223 53.1203 55.0614 53.0565C54.9977 52.9957 54.9484 52.9232 54.9136 52.8391C54.8759 52.7551 54.8571 52.6652 54.8571 52.5696C54.8571 52.4739 54.8759 52.3855 54.9136 52.3043C54.9513 52.2232 55.002 52.1522 55.0658 52.0913C55.1295 52.0304 55.2035 51.9826 55.2875 51.9478C55.3687 51.9101 55.4556 51.8884 55.5484 51.8826L56.2266 51.8739C56.1223 51.7087 56.0498 51.5406 56.0093 51.3696C55.9687 51.1986 55.9498 51.0116 55.9527 50.8087C55.9556 50.5536 56.0122 50.3029 56.1223 50.0565C56.2353 49.8101 56.3875 49.5884 56.5788 49.3913C56.773 49.1942 56.9991 49.0304 57.2571 48.9C57.5151 48.7696 57.7919 48.6928 58.0875 48.6696C58.2353 48.658 58.3774 48.6594 58.5136 48.6739C58.6498 48.6855 58.7788 48.7072 58.9006 48.7391C59.0223 48.7681 59.1368 48.8043 59.244 48.8478C59.3513 48.8884 59.4484 48.9319 59.5353 48.9783C59.6368 49.0333 59.7339 49.0928 59.8266 49.1565C59.9194 49.2174 60.0064 49.2841 60.0875 49.3565L59.5484 50.387Z" fill="#191919"/>
<rect x="151" y="21.5" width="19" height="19" rx="9.5" fill="white"/>
<rect x="151" y="21.5" width="19" height="19" rx="9.5" stroke="#191919"/>
<circle cx="160.5" cy="31" r="2" fill="#191919"/>
<path d="M159.331 53.2609C159.064 53.2609 158.805 53.2188 158.553 53.1348C158.544 53.3696 158.512 53.6087 158.457 53.8522C158.402 54.0957 158.322 54.329 158.218 54.5522C158.116 54.7783 157.987 54.987 157.831 55.1783C157.677 55.3696 157.496 55.5319 157.287 55.6652C156.992 55.8565 156.667 56.0014 156.314 56.1C155.963 56.1986 155.561 56.2478 155.109 56.2478C154.605 56.2478 154.171 56.187 153.809 56.0652C153.45 55.9464 153.137 55.7725 152.87 55.5435C152.708 55.3986 152.566 55.2377 152.444 55.0609C152.325 54.887 152.227 54.7014 152.148 54.5043C152.07 54.3101 152.011 54.1058 151.97 53.8913C151.932 53.6797 151.914 53.4638 151.914 53.2435C151.914 52.9942 151.931 52.758 151.966 52.5348C152 52.3087 152.054 52.0826 152.127 51.8565C152.199 51.6304 152.289 51.3986 152.396 51.1609C152.506 50.9232 152.635 50.6667 152.783 50.3913L153.761 51.0957C153.677 51.2464 153.596 51.4159 153.518 51.6043C153.44 51.7899 153.37 51.9826 153.309 52.1826C153.251 52.3797 153.203 52.5768 153.166 52.7739C153.131 52.971 153.114 53.1551 153.114 53.3261C153.114 53.5522 153.169 53.7594 153.279 53.9478C153.389 54.1362 153.534 54.2971 153.714 54.4304C153.896 54.5667 154.103 54.6725 154.335 54.7478C154.567 54.8261 154.806 54.8667 155.053 54.8696C155.392 54.8754 155.702 54.8478 155.983 54.787C156.264 54.729 156.506 54.6348 156.709 54.5043C156.912 54.3739 157.069 54.2058 157.179 54C157.292 53.7942 157.348 53.5464 157.348 53.2565C157.348 53.0884 157.324 52.9101 157.274 52.7217C157.225 52.5304 157.16 52.3333 157.079 52.1304C157 51.9246 156.908 51.7145 156.8 51.5C156.696 51.2826 156.587 51.0609 156.474 50.8348L157.661 50.0826L158.1 50.9304C158.219 51.171 158.334 51.3565 158.444 51.487C158.557 51.6145 158.666 51.7087 158.77 51.7696C158.874 51.8275 158.973 51.8623 159.066 51.8739C159.161 51.8826 159.25 51.887 159.331 51.887C159.427 51.887 159.516 51.9043 159.6 51.9391C159.685 51.9739 159.757 52.0232 159.818 52.087C159.882 52.1478 159.931 52.2203 159.966 52.3043C160.003 52.3884 160.022 52.4783 160.022 52.5739C160.022 52.6696 160.003 52.7594 159.966 52.8435C159.931 52.9275 159.882 53 159.818 53.0609C159.757 53.1217 159.685 53.1696 159.6 53.2043C159.516 53.242 159.427 53.2609 159.331 53.2609ZM155.183 49.0652L156.148 50.0304L155.183 50.9957L154.218 50.0304L155.183 49.0652ZM159.143 52.5739C159.143 52.4783 159.16 52.3884 159.195 52.3043C159.23 52.2203 159.279 52.1478 159.343 52.087C159.404 52.0232 159.476 51.9739 159.56 51.9391C159.644 51.9043 159.734 51.887 159.83 51.887H160.16C160.369 51.887 160.569 51.8783 160.76 51.8609C160.955 51.8435 161.126 51.8072 161.273 51.7522C161.421 51.6942 161.54 51.6145 161.63 51.513C161.723 51.4087 161.772 51.271 161.778 51.1C161.781 51.0362 161.781 50.9841 161.778 50.9435C161.778 50.9 161.77 50.8493 161.756 50.7913C161.742 50.7304 161.72 50.6522 161.691 50.5565C161.665 50.458 161.627 50.3203 161.578 50.1435L162.843 49.787C162.898 49.9261 162.949 50.1101 162.995 50.3391C163.042 50.5681 163.076 50.8188 163.099 51.0913C163.105 51.1783 163.115 51.2681 163.13 51.3609C163.144 51.4536 163.168 51.5391 163.199 51.6174C163.234 51.6957 163.281 51.7609 163.339 51.813C163.397 51.8623 163.472 51.887 163.565 51.887C163.66 51.887 163.75 51.9043 163.834 51.9391C163.918 51.9739 163.991 52.0232 164.052 52.087C164.115 52.1478 164.165 52.2203 164.199 52.3043C164.237 52.3884 164.256 52.4783 164.256 52.5739C164.256 52.6696 164.237 52.7594 164.199 52.8435C164.165 52.9275 164.115 53 164.052 53.0609C163.988 53.1246 163.914 53.1739 163.83 53.2087C163.749 53.2435 163.662 53.2609 163.569 53.2609C163.291 53.2609 163.052 53.2174 162.852 53.1304C162.655 53.0464 162.485 52.9362 162.343 52.8C162.213 52.887 162.062 52.9594 161.891 53.0174C161.723 53.0754 161.543 53.1217 161.352 53.1565C161.16 53.1942 160.963 53.2203 160.76 53.2348C160.557 53.2522 160.357 53.2609 160.16 53.2609H159.83C159.734 53.2609 159.644 53.2435 159.56 53.2087C159.476 53.1739 159.404 53.1246 159.343 53.0609C159.279 53 159.23 52.9275 159.195 52.8435C159.16 52.7594 159.143 52.6696 159.143 52.5739ZM163.46 48.3826L162.626 49.2217L161.799 48.3957L160.982 49.213L160.139 48.3739L160.973 47.5348L161.799 48.3609L162.617 47.5435L163.46 48.3826ZM163.457 52.5739C163.457 52.4783 163.474 52.3899 163.509 52.3087C163.544 52.2275 163.592 52.1565 163.653 52.0957C163.714 52.0348 163.786 51.987 163.87 51.9522C163.951 51.9145 164.04 51.8928 164.135 51.887C164.33 51.887 164.498 51.8493 164.64 51.7739C164.785 51.6986 164.912 51.6 165.022 51.4783C165.132 51.3565 165.231 51.2203 165.318 51.0696C165.405 50.9188 165.487 50.7681 165.566 50.6174V50.6217C165.641 50.4652 165.721 50.3101 165.805 50.1565C165.892 50.0029 165.986 49.8609 166.087 49.7304C166.244 49.5478 166.419 49.4072 166.614 49.3087C166.808 49.2072 167.015 49.1565 167.235 49.1565C167.496 49.1565 167.732 49.2101 167.944 49.3174C168.158 49.4246 168.353 49.5783 168.527 49.7783C168.657 49.9348 168.763 50.1145 168.844 50.3174C168.925 50.5174 168.979 50.7304 169.005 50.9565V50.9478C169.022 51.0609 169.031 51.1899 169.031 51.3348C169.031 51.4913 169.016 51.6449 168.987 51.7957C168.961 51.9435 168.924 52.0841 168.874 52.2174C168.779 52.4609 168.641 52.6652 168.461 52.8304C168.285 52.9928 168.092 53.1043 167.883 53.1652C167.814 53.1855 167.744 53.1986 167.674 53.2043C167.608 53.213 167.537 53.2174 167.461 53.2174C167.331 53.2174 167.192 53.2014 167.044 53.1696C166.899 53.1377 166.756 53.0942 166.614 53.0391C166.556 53.013 166.49 52.9826 166.418 52.9478C166.345 52.9101 166.269 52.8696 166.187 52.8261C166.109 52.7826 166.031 52.7377 165.953 52.6913C165.874 52.6449 165.802 52.6 165.735 52.5565C165.619 52.6638 165.503 52.7609 165.387 52.8478C165.272 52.9348 165.15 53.0087 165.022 53.0696C164.895 53.1304 164.758 53.1768 164.614 53.2087C164.469 53.2435 164.311 53.2609 164.14 53.2609C164.044 53.2609 163.956 53.242 163.874 53.2043C163.79 53.1696 163.718 53.1217 163.657 53.0609C163.593 53 163.544 52.9275 163.509 52.8435C163.474 52.7594 163.457 52.6696 163.457 52.5739ZM166.54 51.4304C166.63 51.4884 166.735 51.5449 166.857 51.6C166.982 51.6551 167.105 51.7043 167.227 51.7478C167.348 51.7913 167.46 51.8275 167.561 51.8565C167.666 51.8826 167.744 51.8957 167.796 51.8957C167.808 51.8957 167.819 51.8957 167.831 51.8957C167.845 51.8928 167.86 51.8899 167.874 51.887C167.909 51.8783 167.943 51.8348 167.974 51.7565C168.009 51.6754 168.022 51.5652 168.014 51.4261C168.014 51.3333 167.987 51.2319 167.935 51.1217C167.883 51.0087 167.815 50.9043 167.731 50.8087C167.647 50.7101 167.55 50.629 167.44 50.5652C167.332 50.4986 167.222 50.4652 167.109 50.4652C167.069 50.4652 167.016 50.5232 166.953 50.6391C166.889 50.7551 166.796 50.9275 166.674 51.1565V51.1522L166.54 51.4304Z" fill="#6F6F6F"/>
<rect x="263" y="21.5" width="19" height="19" rx="9.5" fill="white"/>
<rect x="263" y="21.5" width="19" height="19" rx="9.5" stroke="#C6C6C6"/>
<path d="M260.933 53.2087C260.497 53.2087 260.106 53.182 259.76 53.1287C259.417 53.0777 259.116 53.0035 258.856 52.9061C258.33 52.702 257.968 52.4029 257.771 52.0087V52.0122C257.66 51.7965 257.604 51.5577 257.604 51.2957C257.604 51.182 257.618 51.0591 257.646 50.927C257.673 50.7948 257.709 50.6661 257.753 50.5409C257.809 50.3948 257.869 50.2661 257.934 50.1548C257.999 50.0412 258.066 49.9217 258.136 49.7965L258.953 50.4817C258.919 50.5304 258.878 50.5942 258.832 50.673C258.785 50.7496 258.74 50.8307 258.696 50.9165C258.654 51.0023 258.618 51.0893 258.588 51.1774C258.56 51.2632 258.546 51.3386 258.546 51.4035C258.546 51.4499 258.553 51.4881 258.567 51.5183C258.614 51.6133 258.705 51.6968 258.842 51.7687C258.981 51.8406 259.155 51.902 259.364 51.953C259.573 52.0017 259.81 52.0388 260.077 52.0643C260.344 52.0899 260.629 52.1026 260.933 52.1026C261.097 52.1026 261.284 52.0945 261.493 52.0783C261.704 52.062 261.92 52.0365 262.143 52.0017C262.366 51.9646 262.587 51.9183 262.807 51.8626C263.028 51.8046 263.229 51.7351 263.413 51.6539C263.385 51.5449 263.351 51.4406 263.312 51.3409C263.275 51.2412 263.228 51.138 263.173 51.0313C263.117 50.9223 263.051 50.8064 262.974 50.6835C262.898 50.5606 262.807 50.4203 262.703 50.2626L263.559 49.7061C263.6 49.7733 263.649 49.8557 263.705 49.953C263.76 50.0504 263.816 50.1559 263.872 50.2696C263.93 50.3809 263.985 50.4991 264.039 50.6243C264.094 50.7496 264.143 50.8748 264.185 51C264.229 51.1252 264.262 51.2481 264.286 51.3687C264.309 51.487 264.318 51.5983 264.313 51.7026C264.302 51.8974 264.235 52.0701 264.112 52.2209C263.989 52.3693 263.831 52.4991 263.639 52.6104C263.449 52.7217 263.233 52.8157 262.992 52.8922C262.753 52.9687 262.509 53.0301 262.261 53.0765C262.015 53.1229 261.777 53.1565 261.545 53.1774C261.313 53.1983 261.109 53.2087 260.933 53.2087ZM262.359 49.56L261.691 50.2313L261.03 49.5704L260.376 50.2243L259.701 49.553L260.369 48.8817L261.03 49.5426L261.684 48.8887L262.359 49.56ZM267.134 53.2087C266.849 53.2087 266.605 53.1728 266.401 53.1009C266.196 53.0313 266.02 52.9235 265.872 52.7774C265.779 52.6846 265.707 52.5872 265.656 52.4852C265.607 52.3832 265.572 52.2835 265.548 52.1861C265.527 52.0864 265.515 51.9925 265.51 51.9043C265.508 51.8162 265.507 51.7409 265.507 51.6783V51.6261C265.509 51.5403 265.511 51.4174 265.514 51.2574C265.518 51.0951 265.521 50.9049 265.521 50.687C265.521 50.469 265.519 50.229 265.517 49.967C265.515 49.7049 265.508 49.4441 265.496 49.1843C265.487 48.9223 265.472 48.6707 265.451 48.4296C265.432 48.1884 265.406 47.9786 265.371 47.8L266.411 47.4835C266.441 47.6365 266.465 47.8174 266.484 48.0261C266.503 48.2325 266.518 48.4493 266.529 48.6765C266.543 48.9038 266.552 49.1322 266.557 49.3617C266.564 49.5913 266.569 49.8046 266.571 50.0017C266.573 50.1757 266.566 50.3461 266.55 50.513C266.536 50.6777 266.525 50.84 266.515 51C266.506 51.1577 266.506 51.3119 266.515 51.4626C266.527 51.611 266.559 51.7559 266.613 51.8974C266.634 51.9507 266.659 51.9913 266.689 52.0191C266.722 52.047 266.759 52.0678 266.801 52.0817C266.842 52.0933 266.887 52.1003 266.936 52.1026C266.987 52.1049 267.043 52.1061 267.103 52.1061H267.134C267.209 52.1061 267.279 52.1212 267.347 52.1513C267.414 52.1814 267.472 52.222 267.521 52.273C267.572 52.3217 267.612 52.3797 267.642 52.447C267.672 52.5142 267.687 52.5849 267.687 52.6591C267.687 52.7357 267.672 52.8075 267.642 52.8748C267.612 52.942 267.572 53 267.521 53.0487C267.472 53.0997 267.414 53.1391 267.347 53.167C267.279 53.1948 267.209 53.2087 267.134 53.2087ZM270.502 52.2139C270.576 52.1954 270.62 52.0991 270.634 51.9252C270.648 51.7443 270.614 51.582 270.533 51.4383C270.461 51.3061 270.352 51.1913 270.206 51.0939C270.06 50.9965 269.95 50.9629 269.876 50.993C269.776 51.0348 269.625 51.2922 269.424 51.7652C270.006 52.0991 270.365 52.2487 270.502 52.2139ZM272.258 52.6591C272.258 52.8099 272.205 52.9386 272.098 53.0452C271.989 53.1519 271.86 53.2064 271.709 53.2087H271.705C271.413 53.2087 271.177 53.109 270.996 52.9096C270.806 53.0997 270.563 53.1948 270.269 53.1948C269.928 53.1948 269.433 53.0232 268.784 52.68C268.742 52.7681 268.662 52.8574 268.544 52.9478C268.439 53.0267 268.32 53.0881 268.185 53.1322C268.016 53.1878 267.826 53.2157 267.615 53.2157C267.462 53.2157 267.332 53.1623 267.225 53.0557C267.119 52.949 267.065 52.8191 267.065 52.6661C267.065 52.5154 267.119 52.3867 267.225 52.28C267.332 52.1733 267.462 52.12 267.615 52.12C267.905 52.12 268.158 51.9762 268.373 51.6887C268.45 51.5843 268.531 51.4487 268.617 51.2817C268.642 51.2307 268.677 51.1612 268.721 51.073L268.77 50.9687L268.818 50.8713C269.132 50.2499 269.522 49.9391 269.991 49.9391C270.332 49.9391 270.633 50.0528 270.895 50.28C271.192 50.5374 271.36 50.891 271.399 51.3409L271.403 51.3722C271.407 51.3861 271.41 51.4023 271.41 51.4209C271.414 51.5345 271.431 51.6493 271.458 51.7652C271.484 51.8649 271.514 51.9438 271.549 52.0017C271.595 52.0736 271.649 52.1096 271.709 52.1096C271.86 52.1096 271.988 52.1629 272.095 52.2696C272.204 52.3762 272.258 52.5061 272.258 52.6591ZM271.664 52.6591C271.664 52.5826 271.678 52.5107 271.706 52.4435C271.734 52.3762 271.773 52.3183 271.824 52.2696C271.873 52.2186 271.931 52.1791 271.998 52.1513C272.066 52.1235 272.137 52.1096 272.214 52.1096H272.478C272.645 52.1096 272.805 52.1026 272.958 52.0887C273.114 52.0748 273.25 52.0458 273.369 52.0017C273.487 51.9554 273.582 51.8916 273.654 51.8104C273.728 51.727 273.768 51.6168 273.772 51.48C273.775 51.429 273.775 51.3872 273.772 51.3548C273.772 51.32 273.766 51.2794 273.755 51.233C273.743 51.1843 273.726 51.1217 273.703 51.0452C273.682 50.9664 273.652 50.8562 273.612 50.7148L274.624 50.4296C274.668 50.5409 274.709 50.6881 274.746 50.8713C274.783 51.0545 274.811 51.2551 274.83 51.473C274.834 51.5426 274.842 51.6145 274.854 51.6887C274.866 51.7629 274.884 51.8313 274.91 51.8939C274.937 51.9565 274.975 52.0087 275.021 52.0504C275.067 52.0899 275.128 52.1096 275.202 52.1096C275.278 52.1096 275.35 52.1235 275.417 52.1513C275.485 52.1791 275.543 52.2186 275.591 52.2696C275.642 52.3183 275.682 52.3762 275.71 52.4435C275.74 52.5107 275.755 52.5826 275.755 52.6591C275.755 52.7357 275.74 52.8075 275.71 52.8748C275.682 52.942 275.642 53 275.591 53.0487C275.54 53.0997 275.481 53.1391 275.414 53.167C275.349 53.1948 275.279 53.2087 275.205 53.2087C274.983 53.2087 274.791 53.1739 274.631 53.1043C274.474 53.0371 274.338 52.949 274.224 52.84C274.12 52.9096 273.999 52.9675 273.863 53.0139C273.728 53.0603 273.584 53.0974 273.431 53.1252C273.278 53.1554 273.121 53.1762 272.958 53.1878C272.796 53.2017 272.636 53.2087 272.478 53.2087H272.214C272.137 53.2087 272.066 53.1948 271.998 53.167C271.931 53.1391 271.873 53.0997 271.824 53.0487C271.773 53 271.734 52.942 271.706 52.8748C271.678 52.8075 271.664 52.7357 271.664 52.6591ZM274.993 54.4574L274.325 55.1287L273.664 54.4678L273.01 55.1217L272.336 54.4504L273.003 53.7791L273.664 54.44L274.318 53.7861L274.993 54.4574ZM275.167 52.6591C275.167 52.5849 275.182 52.5154 275.212 52.4504C275.242 52.3832 275.283 52.3241 275.334 52.273C275.383 52.222 275.441 52.1826 275.508 52.1548C275.575 52.1246 275.646 52.1096 275.72 52.1096H276.124C276.163 52.0423 276.217 51.9519 276.287 51.8383C276.357 51.7246 276.447 51.5983 276.558 51.4591C276.577 51.313 276.593 51.1333 276.607 50.92C276.621 50.7067 276.629 50.4748 276.631 50.2243C276.631 50.1316 276.63 50.0423 276.628 49.9565C276.628 49.8707 276.626 49.7803 276.621 49.6852C276.619 49.5878 276.613 49.4823 276.604 49.3687C276.597 49.2528 276.587 49.1194 276.576 48.9687C276.564 48.818 276.549 48.6452 276.53 48.4504C276.512 48.2557 276.49 48.0307 276.464 47.7757L277.584 47.4904C277.617 47.7293 277.644 47.96 277.664 48.1826C277.688 48.4052 277.705 48.6278 277.717 48.8504C277.73 49.073 277.74 49.2991 277.744 49.5287C277.751 49.7559 277.755 49.9936 277.755 50.2417C277.875 50.1467 277.999 50.0574 278.127 49.9739C278.257 49.8881 278.39 49.8139 278.527 49.7513C278.666 49.6887 278.81 49.64 278.958 49.6052C279.107 49.5681 279.263 49.5496 279.428 49.5496C279.618 49.5496 279.798 49.5797 279.967 49.64C280.136 49.7003 280.286 49.7872 280.416 49.9009C280.548 50.0145 280.656 50.1525 280.739 50.3148C280.825 50.4771 280.878 50.6603 280.899 50.8643C280.908 51.1171 280.881 51.3467 280.816 51.553C280.753 51.7571 280.663 51.9426 280.544 52.1096H281.244C281.32 52.1096 281.392 52.1235 281.459 52.1513C281.526 52.1791 281.584 52.2174 281.633 52.2661C281.684 52.3148 281.724 52.3728 281.751 52.44C281.779 52.5072 281.793 52.5791 281.793 52.6557C281.793 52.7322 281.779 52.8041 281.751 52.8713C281.724 52.9386 281.684 52.9965 281.633 53.0452C281.584 53.0962 281.526 53.1357 281.459 53.1635C281.392 53.1936 281.319 53.2087 281.24 53.2087H280.381C280.198 53.2087 279.994 53.2006 279.769 53.1843C279.546 53.1704 279.298 53.1287 279.024 53.0591C278.827 53.1125 278.627 53.1507 278.423 53.1739C278.219 53.1994 278.015 53.2122 277.81 53.2122L275.751 53.2087H275.72C275.646 53.2087 275.575 53.1948 275.508 53.167C275.441 53.1391 275.383 53.1009 275.334 53.0522C275.283 53.0035 275.242 52.9455 275.212 52.8783C275.182 52.811 275.167 52.738 275.167 52.6591ZM277.41 52.1096C277.547 52.1096 277.707 52.1061 277.89 52.0991C278.076 52.0922 278.267 52.0771 278.464 52.0539C278.661 52.0307 278.855 51.9971 279.045 51.953C279.235 51.9067 279.405 51.8452 279.553 51.7687C279.701 51.6899 279.82 51.5925 279.908 51.4765C279.996 51.3606 280.035 51.2203 280.026 51.0557C280.021 51.0046 279.996 50.9559 279.95 50.9096C279.903 50.8632 279.843 50.8226 279.769 50.7878C279.695 50.753 279.611 50.7252 279.518 50.7043C279.426 50.6835 279.332 50.673 279.237 50.673C279.132 50.68 279.002 50.7101 278.847 50.7635C278.694 50.8145 278.529 50.8957 278.353 51.007C278.177 51.1183 277.995 51.2643 277.807 51.4452C277.621 51.6238 277.443 51.8452 277.271 52.1096H277.41ZM279.386 47.5113L280.158 48.2835L279.386 49.0557L278.614 48.2835L279.386 47.5113ZM281.142 52.6591C281.142 52.5826 281.156 52.5107 281.184 52.4435C281.211 52.3762 281.251 52.3183 281.302 52.2696C281.351 52.2209 281.409 52.1826 281.476 52.1548C281.543 52.1246 281.615 52.1096 281.691 52.1096H281.751C282.073 52.1096 282.316 52.0586 282.481 51.9565C282.646 51.8522 282.728 51.6945 282.728 51.4835C282.728 51.4417 282.728 51.4046 282.728 51.3722C282.73 51.3397 282.727 51.298 282.717 51.247C282.711 51.1936 282.695 51.1252 282.672 51.0417C282.651 50.9559 282.619 50.8388 282.575 50.6904L283.566 50.4504C283.615 50.5896 283.658 50.7461 283.695 50.92C283.732 51.0916 283.751 51.2794 283.751 51.4835C283.751 51.5507 283.756 51.6214 283.768 51.6957C283.782 51.7675 283.803 51.8348 283.831 51.8974C283.861 51.9577 283.9 52.0087 283.949 52.0504C284 52.0899 284.064 52.1096 284.14 52.1096C284.214 52.1096 284.285 52.1246 284.352 52.1548C284.42 52.1826 284.477 52.2209 284.526 52.2696C284.577 52.3183 284.618 52.3762 284.648 52.4435C284.678 52.5107 284.693 52.5826 284.693 52.6591C284.693 52.7357 284.678 52.8075 284.648 52.8748C284.62 52.942 284.581 53 284.53 53.0487C284.479 53.0997 284.42 53.1391 284.352 53.167C284.287 53.1948 284.218 53.2087 284.144 53.2087C283.921 53.2087 283.731 53.1762 283.573 53.1113C283.415 53.0487 283.28 52.9641 283.166 52.8574C282.999 52.978 282.8 53.0661 282.568 53.1217C282.338 53.1797 282.066 53.2087 281.751 53.2087H281.691C281.615 53.2087 281.543 53.1948 281.476 53.167C281.409 53.1391 281.351 53.0997 281.302 53.0487C281.251 53 281.211 52.942 281.184 52.8748C281.156 52.8075 281.142 52.7357 281.142 52.6591ZM283.044 48.3357L283.817 49.1078L283.044 49.88L282.272 49.1078L283.044 48.3357ZM287.451 48.6696L286.784 49.3409L286.123 48.68L285.469 49.3339L284.794 48.6626L285.462 47.9913L286.123 48.6522L286.777 47.9983L287.451 48.6696ZM283.97 52.6591C283.97 52.5826 283.985 52.5107 284.015 52.4435C284.043 52.3762 284.081 52.3183 284.13 52.2696C284.178 52.2186 284.236 52.1791 284.304 52.1513C284.371 52.1235 284.443 52.1096 284.519 52.1096H284.905H285.072C285.177 52.1096 285.291 52.1049 285.417 52.0957C285.542 52.0864 285.663 52.0713 285.778 52.0504C285.894 52.0296 285.999 52.0017 286.091 51.967C286.187 51.9299 286.256 51.8835 286.3 51.8278C286.326 51.7884 286.338 51.7351 286.338 51.6678C286.338 51.5681 286.314 51.4499 286.265 51.313C286.219 51.1762 286.163 51.0371 286.098 50.8957C286.034 50.7542 285.966 50.6186 285.897 50.4887C285.829 50.3588 285.775 50.251 285.733 50.1652L286.725 49.6783C286.796 49.8035 286.866 49.9519 286.933 50.1235C287 50.2928 287.061 50.4678 287.114 50.6487C287.167 50.8272 287.21 51.0035 287.243 51.1774C287.275 51.349 287.291 51.4986 287.291 51.6261C287.291 51.8603 287.25 52.0748 287.166 52.2696C287.069 52.4875 286.936 52.6684 286.766 52.8122C286.597 52.9536 286.394 53.058 286.158 53.1252C286.088 53.1438 286.001 53.1588 285.897 53.1704C285.792 53.182 285.687 53.1901 285.58 53.1948C285.474 53.2017 285.373 53.2052 285.278 53.2052C285.183 53.2075 285.108 53.2087 285.055 53.2087H284.551H284.519C284.443 53.2087 284.371 53.1948 284.304 53.167C284.236 53.1391 284.178 53.0997 284.13 53.0487C284.081 53 284.043 52.942 284.015 52.8748C283.985 52.8075 283.97 52.7357 283.97 52.6591Z" fill="#6F6F6F"/>
</svg>
