<svg width="363" height="80" viewBox="0 0 363 80" fill="none" xmlns="http://www.w3.org/2000/svg">
<rect x="48.25" y="31.25" width="66.25" height="0.5" fill="#0043CE"/>
<rect x="48.25" y="31.25" width="66.25" height="0.5" stroke="#191919" stroke-width="0.5"/>
<rect x="115" y="31.25" width="66.25" height="0.5" fill="#0043CE"/>
<rect x="115" y="31.25" width="66.25" height="0.5" stroke="#191919" stroke-width="0.5"/>
<rect width="66.75" height="1" transform="translate(181.5 31)" fill="#C6C6C6"/>
<rect width="66.75" height="1" transform="translate(248.25 31)" fill="#C6C6C6"/>
<rect x="38" y="21" width="20" height="20" rx="10" fill="#191919"/>
<path d="M47.0535 33.3867C46.9201 33.3867 46.7935 33.3334 46.7001 33.2401L44.8135 31.3534C44.6201 31.1601 44.6201 30.8401 44.8135 30.6467C45.0068 30.4534 45.3268 30.4534 45.5201 30.6467L47.0535 32.1801L50.4801 28.7534C50.6735 28.5601 50.9935 28.5601 51.1868 28.7534C51.3801 28.9467 51.3801 29.2667 51.1868 29.4601L47.4068 33.2401C47.3135 33.3334 47.1868 33.3867 47.0535 33.3867Z" fill="white"/>
<path d="M45.976 53.2522C45.7267 53.2522 45.5166 53.2043 45.3456 53.1087C45.1775 53.013 45.0383 52.8928 44.9282 52.7478C44.8673 52.8261 44.8021 52.8971 44.7325 52.9609C44.663 53.0217 44.5804 53.0739 44.4847 53.1174C44.392 53.1638 44.2818 53.1986 44.1543 53.2217C44.0296 53.2449 43.8804 53.2565 43.7065 53.2565C43.5847 53.2565 43.4731 53.2478 43.3717 53.2304C43.2702 53.213 43.1775 53.1913 43.0934 53.1652C43.0905 53.5043 43.0383 53.813 42.9369 54.0913C42.8383 54.3696 42.7021 54.6188 42.5282 54.8391C42.3572 55.0594 42.1557 55.2507 41.9238 55.413C41.692 55.5754 41.4427 55.7087 41.176 55.813C40.9094 55.9203 40.6296 56 40.3369 56.0522C40.047 56.1043 39.7586 56.1304 39.4717 56.1304C39.0282 56.1304 38.618 56.0565 38.2412 55.9087C37.8644 55.7638 37.5383 55.558 37.263 55.2913C36.9905 55.0275 36.7775 54.7087 36.6238 54.3348C36.4702 53.9638 36.3934 53.5536 36.3934 53.1043C36.4021 52.8435 36.4369 52.5768 36.4978 52.3043C36.5615 52.0319 36.6412 51.7652 36.7369 51.5043C36.8354 51.2435 36.9441 50.9957 37.063 50.7609C37.1847 50.5232 37.3079 50.3101 37.4325 50.1217L38.3804 50.8478C38.276 51.0188 38.176 51.2 38.0804 51.3913C37.9847 51.5826 37.9007 51.7768 37.8282 51.9739C37.7586 52.1681 37.7021 52.3638 37.6586 52.5609C37.6151 52.758 37.5934 52.9478 37.5934 53.1304C37.5847 53.3507 37.6267 53.558 37.7195 53.7522C37.8151 53.9493 37.947 54.1203 38.1151 54.2652C38.2862 54.413 38.4862 54.529 38.7151 54.613C38.9441 54.7 39.1905 54.7435 39.4543 54.7435C39.6543 54.7435 39.8528 54.729 40.0499 54.7C40.2499 54.6739 40.4398 54.629 40.6195 54.5652C40.8021 54.5043 40.9717 54.4246 41.1282 54.3261C41.2847 54.2304 41.4195 54.113 41.5325 53.9739C41.6485 53.8348 41.7383 53.6725 41.8021 53.487C41.8688 53.3043 41.9021 53.0957 41.9021 52.8609C41.9021 52.687 41.876 52.5058 41.8238 52.3174C41.7717 52.1261 41.7021 51.9319 41.6151 51.7348C41.5311 51.5348 41.434 51.3319 41.3238 51.1261C41.2166 50.9203 41.105 50.7145 40.9891 50.5087L42.1934 49.8652C42.2978 50.1145 42.4065 50.3594 42.5195 50.6C42.6325 50.8406 42.7499 51.0565 42.8717 51.2478C42.9934 51.4362 43.1195 51.5884 43.2499 51.7043C43.3804 51.8174 43.5151 51.871 43.6543 51.8652C43.7702 51.8623 43.8615 51.8304 43.9282 51.7696C43.9978 51.7087 44.0514 51.629 44.0891 51.5304C44.1267 51.4319 44.1514 51.3188 44.163 51.1913C44.1746 51.0638 44.1804 50.9304 44.1804 50.7913C44.1775 50.6696 44.1731 50.5449 44.1673 50.4174C44.1615 50.287 44.1572 50.1609 44.1543 50.0391L45.3891 49.8696C45.3891 49.9507 45.392 50.058 45.3978 50.1913C45.4065 50.3217 45.4195 50.4623 45.4369 50.613C45.4572 50.7638 45.4833 50.9159 45.5151 51.0696C45.5499 51.2232 45.5934 51.3623 45.6456 51.487C45.6978 51.6087 45.7601 51.7087 45.8325 51.787C45.905 51.8652 45.9905 51.9043 46.0891 51.9043C46.1847 51.9043 46.2688 51.8609 46.3412 51.7739C46.4166 51.6841 46.4789 51.5696 46.5282 51.4304C46.5804 51.2913 46.618 51.1377 46.6412 50.9696C46.6673 50.7986 46.6804 50.6319 46.6804 50.4696C46.6804 50.4058 46.6789 50.3609 46.676 50.3348C46.676 50.3058 46.676 50.2812 46.676 50.2609C46.676 50.2377 46.6746 50.2116 46.6717 50.1826C46.6717 50.1507 46.6717 50.1 46.6717 50.0304L47.8499 49.8609L47.8804 50.2043V50.2C47.8862 50.2754 47.892 50.3449 47.8978 50.4087C47.9065 50.4725 47.9151 50.5391 47.9238 50.6087C47.9325 50.6754 47.9427 50.7478 47.9543 50.8261C47.9659 50.9043 47.9789 50.9957 47.9934 51.1C48.0108 51.2333 48.0485 51.3493 48.1065 51.4478C48.1644 51.5464 48.2325 51.629 48.3108 51.6957C48.3891 51.7594 48.4717 51.8072 48.5586 51.8391C48.6456 51.871 48.7282 51.887 48.8065 51.887H48.8586C48.9659 51.887 49.063 51.9058 49.1499 51.9435C49.2398 51.9783 49.3166 52.0275 49.3804 52.0913C49.4441 52.1522 49.4934 52.2246 49.5282 52.3087C49.563 52.3928 49.5804 52.4826 49.5804 52.5783C49.5804 52.6739 49.563 52.7638 49.5282 52.8478C49.4934 52.9319 49.4441 53.0043 49.3804 53.0652C49.3166 53.1261 49.2398 53.1739 49.1499 53.2087C49.0601 53.2464 48.9601 53.2652 48.8499 53.2652C48.5253 53.2652 48.2398 53.213 47.9934 53.1087C47.747 53.0072 47.5369 52.8435 47.363 52.6174C47.2065 52.8174 47.0108 52.9725 46.776 53.0826C46.5412 53.1957 46.2746 53.2522 45.976 53.2522ZM48.6607 52.5739C48.6607 52.4783 48.6795 52.3884 48.7172 52.3043C48.752 52.2203 48.8013 52.1478 48.865 52.087C48.9288 52.0261 49.0027 51.9783 49.0868 51.9435C49.1708 51.9058 49.2593 51.887 49.352 51.887H49.3911H50.8259C50.91 51.887 51.0056 51.8696 51.1129 51.8348C51.223 51.8 51.3274 51.7551 51.4259 51.7C51.5245 51.642 51.61 51.5783 51.6824 51.5087C51.7549 51.4362 51.7969 51.3638 51.8085 51.2913C51.8172 51.1464 51.7911 50.9899 51.7303 50.8217C51.6694 50.6536 51.5839 50.4826 51.4737 50.3087C51.3665 50.1319 51.2419 49.9565 51.0998 49.7826C50.9578 49.6058 50.81 49.4377 50.6564 49.2783C50.5027 49.1188 50.3491 48.971 50.1955 48.8348C50.0419 48.6986 49.8998 48.5812 49.7694 48.4826L49.8868 47.287L53.8824 45.613L54.3868 46.8087L51.0868 48.1565C51.2868 48.342 51.4679 48.5232 51.6303 48.7C51.7926 48.8739 51.9404 49.0478 52.0737 49.2217C52.21 49.3957 52.3332 49.571 52.4433 49.7478C52.5564 49.9246 52.6607 50.1058 52.7564 50.2913L52.7998 50.3696L52.7955 50.3652C52.8621 50.487 52.9274 50.6087 52.9911 50.7304C53.0578 50.8493 53.1288 50.9696 53.2042 51.0913C53.2737 51.2014 53.3491 51.3043 53.4303 51.4C53.5143 51.4928 53.6056 51.5754 53.7042 51.6478C53.8027 51.7203 53.9071 51.7783 54.0172 51.8217C54.1303 51.8623 54.2506 51.8841 54.3781 51.887H54.3737H54.5564C54.652 51.887 54.7419 51.9058 54.8259 51.9435C54.91 51.9783 54.9824 52.0261 55.0433 52.087C55.1071 52.1478 55.1564 52.2203 55.1911 52.3043C55.2259 52.3884 55.2433 52.4783 55.2433 52.5739C55.2433 52.6696 55.2259 52.7594 55.1911 52.8435C55.1564 52.9275 55.1071 53 55.0433 53.0609C54.9824 53.1246 54.91 53.1739 54.8259 53.2087C54.7419 53.2435 54.652 53.2609 54.5564 53.2609H54.5216C54.3013 53.2609 54.1042 53.2464 53.9303 53.2174C53.7593 53.1884 53.5897 53.1464 53.4216 53.0913C53.2477 53.0275 53.0853 52.942 52.9346 52.8348C52.7839 52.7275 52.6433 52.6072 52.5129 52.4739C52.481 52.5145 52.4448 52.5565 52.4042 52.6C52.3636 52.6435 52.323 52.6855 52.2824 52.7261C52.1723 52.8246 52.0564 52.9072 51.9346 52.9739C51.8129 53.0377 51.6882 53.0899 51.5607 53.1304C51.4332 53.1739 51.3027 53.2043 51.1694 53.2217C51.0361 53.242 50.9027 53.2551 50.7694 53.2609H49.352C49.2593 53.2609 49.1708 53.2435 49.0868 53.2087C49.0027 53.1739 48.9288 53.1246 48.865 53.0609C48.8013 53 48.752 52.9275 48.7172 52.8435C48.6795 52.7594 48.6607 52.6696 48.6607 52.5739ZM59.0484 50.387C58.973 50.3464 58.8962 50.3101 58.818 50.2783C58.7426 50.2435 58.6643 50.2116 58.5832 50.1826C58.444 50.1333 58.289 50.0928 58.118 50.0609C57.9469 50.029 57.7701 50.0232 57.5875 50.0435C57.4629 50.058 57.3426 50.0913 57.2266 50.1435C57.1136 50.1957 57.0122 50.2609 56.9223 50.3391C56.8353 50.4145 56.7658 50.5 56.7136 50.5957C56.6614 50.6913 56.6353 50.7884 56.6353 50.887C56.6353 51.0261 56.6788 51.1493 56.7658 51.2565C56.8527 51.3609 56.9629 51.4478 57.0962 51.5174C57.2324 51.587 57.3817 51.6391 57.544 51.6739C57.7064 51.7087 57.8643 51.7232 58.018 51.7174C58.1832 51.7029 58.3542 51.6826 58.531 51.6565C58.7107 51.6304 58.8788 51.6029 59.0353 51.5739C59.1252 51.5594 59.2151 51.5435 59.3049 51.5261C59.3948 51.5087 59.4846 51.4899 59.5745 51.4696L59.7527 52.8217C59.5585 52.8739 59.3411 52.9261 59.1006 52.9783C58.86 53.0275 58.5875 53.0725 58.2832 53.113C57.9788 53.1565 57.6382 53.1899 57.2614 53.213C56.8846 53.2391 56.4643 53.2522 56.0006 53.2522L55.0527 53.2609C54.9571 53.2609 54.8672 53.242 54.7832 53.2043C54.6962 53.1696 54.6223 53.1203 54.5614 53.0565C54.4977 52.9957 54.4484 52.9232 54.4136 52.8391C54.3759 52.7551 54.3571 52.6652 54.3571 52.5696C54.3571 52.4739 54.3759 52.3855 54.4136 52.3043C54.4513 52.2232 54.502 52.1522 54.5658 52.0913C54.6295 52.0304 54.7035 51.9826 54.7875 51.9478C54.8687 51.9101 54.9556 51.8884 55.0484 51.8826L55.7266 51.8739C55.6223 51.7087 55.5498 51.5406 55.5093 51.3696C55.4687 51.1986 55.4498 51.0116 55.4527 50.8087C55.4556 50.5536 55.5122 50.3029 55.6223 50.0565C55.7353 49.8101 55.8875 49.5884 56.0788 49.3913C56.273 49.1942 56.4991 49.0304 56.7571 48.9C57.0151 48.7696 57.2919 48.6928 57.5875 48.6696C57.7353 48.658 57.8774 48.6594 58.0136 48.6739C58.1498 48.6855 58.2788 48.7072 58.4006 48.7391C58.5223 48.7681 58.6368 48.8043 58.744 48.8478C58.8513 48.8884 58.9484 48.9319 59.0353 48.9783C59.1368 49.0333 59.2339 49.0928 59.3266 49.1565C59.4194 49.2174 59.5064 49.2841 59.5875 49.3565L59.0484 50.387Z" fill="#191919"/>
<rect x="171.5" y="21" width="20" height="20" rx="10" fill="#191919"/>
<path d="M180.553 33.3867C180.42 33.3867 180.293 33.3334 180.2 33.2401L178.313 31.3534C178.12 31.1601 178.12 30.8401 178.313 30.6467C178.507 30.4534 178.827 30.4534 179.02 30.6467L180.553 32.1801L183.98 28.7534C184.173 28.5601 184.493 28.5601 184.687 28.7534C184.88 28.9467 184.88 29.2667 184.687 29.4601L180.907 33.2401C180.813 33.3334 180.687 33.3867 180.553 33.3867Z" fill="white"/>
<path d="M180.331 53.2609C180.064 53.2609 179.805 53.2188 179.553 53.1348C179.544 53.3696 179.512 53.6087 179.457 53.8522C179.402 54.0957 179.322 54.329 179.218 54.5522C179.116 54.7783 178.987 54.987 178.831 55.1783C178.677 55.3696 178.496 55.5319 178.287 55.6652C177.992 55.8565 177.667 56.0014 177.314 56.1C176.963 56.1986 176.561 56.2478 176.109 56.2478C175.605 56.2478 175.171 56.187 174.809 56.0652C174.45 55.9464 174.137 55.7725 173.87 55.5435C173.708 55.3986 173.566 55.2377 173.444 55.0609C173.325 54.887 173.227 54.7014 173.148 54.5043C173.07 54.3101 173.011 54.1058 172.97 53.8913C172.932 53.6797 172.914 53.4638 172.914 53.2435C172.914 52.9942 172.931 52.758 172.966 52.5348C173 52.3087 173.054 52.0826 173.127 51.8565C173.199 51.6304 173.289 51.3986 173.396 51.1609C173.506 50.9232 173.635 50.6667 173.783 50.3913L174.761 51.0957C174.677 51.2464 174.596 51.4159 174.518 51.6043C174.44 51.7899 174.37 51.9826 174.309 52.1826C174.251 52.3797 174.203 52.5768 174.166 52.7739C174.131 52.971 174.114 53.1551 174.114 53.3261C174.114 53.5522 174.169 53.7594 174.279 53.9478C174.389 54.1362 174.534 54.2971 174.714 54.4304C174.896 54.5667 175.103 54.6725 175.335 54.7478C175.567 54.8261 175.806 54.8667 176.053 54.8696C176.392 54.8754 176.702 54.8478 176.983 54.787C177.264 54.729 177.506 54.6348 177.709 54.5043C177.912 54.3739 178.069 54.2058 178.179 54C178.292 53.7942 178.348 53.5464 178.348 53.2565C178.348 53.0884 178.324 52.9101 178.274 52.7217C178.225 52.5304 178.16 52.3333 178.079 52.1304C178 51.9246 177.908 51.7145 177.8 51.5C177.696 51.2826 177.587 51.0609 177.474 50.8348L178.661 50.0826L179.1 50.9304C179.219 51.171 179.334 51.3565 179.444 51.487C179.557 51.6145 179.666 51.7087 179.77 51.7696C179.874 51.8275 179.973 51.8623 180.066 51.8739C180.161 51.8826 180.25 51.887 180.331 51.887C180.427 51.887 180.516 51.9043 180.6 51.9391C180.685 51.9739 180.757 52.0232 180.818 52.087C180.882 52.1478 180.931 52.2203 180.966 52.3043C181.003 52.3884 181.022 52.4783 181.022 52.5739C181.022 52.6696 181.003 52.7594 180.966 52.8435C180.931 52.9275 180.882 53 180.818 53.0609C180.757 53.1217 180.685 53.1696 180.6 53.2043C180.516 53.242 180.427 53.2609 180.331 53.2609ZM176.183 49.0652L177.148 50.0304L176.183 50.9957L175.218 50.0304L176.183 49.0652ZM180.143 52.5739C180.143 52.4783 180.16 52.3884 180.195 52.3043C180.23 52.2203 180.279 52.1478 180.343 52.087C180.404 52.0232 180.476 51.9739 180.56 51.9391C180.644 51.9043 180.734 51.887 180.83 51.887H181.16C181.369 51.887 181.569 51.8783 181.76 51.8609C181.955 51.8435 182.126 51.8072 182.273 51.7522C182.421 51.6942 182.54 51.6145 182.63 51.513C182.723 51.4087 182.772 51.271 182.778 51.1C182.781 51.0362 182.781 50.9841 182.778 50.9435C182.778 50.9 182.77 50.8493 182.756 50.7913C182.742 50.7304 182.72 50.6522 182.691 50.5565C182.665 50.458 182.627 50.3203 182.578 50.1435L183.843 49.787C183.898 49.9261 183.949 50.1101 183.995 50.3391C184.042 50.5681 184.076 50.8188 184.099 51.0913C184.105 51.1783 184.115 51.2681 184.13 51.3609C184.144 51.4536 184.168 51.5391 184.199 51.6174C184.234 51.6957 184.281 51.7609 184.339 51.813C184.397 51.8623 184.472 51.887 184.565 51.887C184.66 51.887 184.75 51.9043 184.834 51.9391C184.918 51.9739 184.991 52.0232 185.052 52.087C185.115 52.1478 185.165 52.2203 185.199 52.3043C185.237 52.3884 185.256 52.4783 185.256 52.5739C185.256 52.6696 185.237 52.7594 185.199 52.8435C185.165 52.9275 185.115 53 185.052 53.0609C184.988 53.1246 184.914 53.1739 184.83 53.2087C184.749 53.2435 184.662 53.2609 184.569 53.2609C184.291 53.2609 184.052 53.2174 183.852 53.1304C183.655 53.0464 183.485 52.9362 183.343 52.8C183.213 52.887 183.062 52.9594 182.891 53.0174C182.723 53.0754 182.543 53.1217 182.352 53.1565C182.16 53.1942 181.963 53.2203 181.76 53.2348C181.557 53.2522 181.357 53.2609 181.16 53.2609H180.83C180.734 53.2609 180.644 53.2435 180.56 53.2087C180.476 53.1739 180.404 53.1246 180.343 53.0609C180.279 53 180.23 52.9275 180.195 52.8435C180.16 52.7594 180.143 52.6696 180.143 52.5739ZM184.46 48.3826L183.626 49.2217L182.799 48.3957L181.982 49.213L181.139 48.3739L181.973 47.5348L182.799 48.3609L183.617 47.5435L184.46 48.3826ZM184.457 52.5739C184.457 52.4783 184.474 52.3899 184.509 52.3087C184.544 52.2275 184.592 52.1565 184.653 52.0957C184.714 52.0348 184.786 51.987 184.87 51.9522C184.951 51.9145 185.04 51.8928 185.135 51.887C185.33 51.887 185.498 51.8493 185.64 51.7739C185.785 51.6986 185.912 51.6 186.022 51.4783C186.132 51.3565 186.231 51.2203 186.318 51.0696C186.405 50.9188 186.487 50.7681 186.566 50.6174V50.6217C186.641 50.4652 186.721 50.3101 186.805 50.1565C186.892 50.0029 186.986 49.8609 187.087 49.7304C187.244 49.5478 187.419 49.4072 187.614 49.3087C187.808 49.2072 188.015 49.1565 188.235 49.1565C188.496 49.1565 188.732 49.2101 188.944 49.3174C189.158 49.4246 189.353 49.5783 189.527 49.7783C189.657 49.9348 189.763 50.1145 189.844 50.3174C189.925 50.5174 189.979 50.7304 190.005 50.9565V50.9478C190.022 51.0609 190.031 51.1899 190.031 51.3348C190.031 51.4913 190.016 51.6449 189.987 51.7957C189.961 51.9435 189.924 52.0841 189.874 52.2174C189.779 52.4609 189.641 52.6652 189.461 52.8304C189.285 52.9928 189.092 53.1043 188.883 53.1652C188.814 53.1855 188.744 53.1986 188.674 53.2043C188.608 53.213 188.537 53.2174 188.461 53.2174C188.331 53.2174 188.192 53.2014 188.044 53.1696C187.899 53.1377 187.756 53.0942 187.614 53.0391C187.556 53.013 187.49 52.9826 187.418 52.9478C187.345 52.9101 187.269 52.8696 187.187 52.8261C187.109 52.7826 187.031 52.7377 186.953 52.6913C186.874 52.6449 186.802 52.6 186.735 52.5565C186.619 52.6638 186.503 52.7609 186.387 52.8478C186.272 52.9348 186.15 53.0087 186.022 53.0696C185.895 53.1304 185.758 53.1768 185.614 53.2087C185.469 53.2435 185.311 53.2609 185.14 53.2609C185.044 53.2609 184.956 53.242 184.874 53.2043C184.79 53.1696 184.718 53.1217 184.657 53.0609C184.593 53 184.544 52.9275 184.509 52.8435C184.474 52.7594 184.457 52.6696 184.457 52.5739ZM187.54 51.4304C187.63 51.4884 187.735 51.5449 187.857 51.6C187.982 51.6551 188.105 51.7043 188.227 51.7478C188.348 51.7913 188.46 51.8275 188.561 51.8565C188.666 51.8826 188.744 51.8957 188.796 51.8957C188.808 51.8957 188.819 51.8957 188.831 51.8957C188.845 51.8928 188.86 51.8899 188.874 51.887C188.909 51.8783 188.943 51.8348 188.974 51.7565C189.009 51.6754 189.022 51.5652 189.014 51.4261C189.014 51.3333 188.987 51.2319 188.935 51.1217C188.883 51.0087 188.815 50.9043 188.731 50.8087C188.647 50.7101 188.55 50.629 188.44 50.5652C188.332 50.4986 188.222 50.4652 188.109 50.4652C188.069 50.4652 188.016 50.5232 187.953 50.6391C187.889 50.7551 187.796 50.9275 187.674 51.1565V51.1522L187.54 51.4304Z" fill="#191919"/>
<rect x="305.5" y="21.5" width="19" height="19" rx="9.5" fill="white"/>
<rect x="305.5" y="21.5" width="19" height="19" rx="9.5" stroke="#191919"/>
<circle cx="315" cy="31" r="2" fill="#191919"/>
<path d="M303.433 53.2087C302.997 53.2087 302.606 53.182 302.26 53.1287C301.917 53.0777 301.616 53.0035 301.356 52.9061C300.83 52.702 300.468 52.4029 300.271 52.0087V52.0122C300.16 51.7965 300.104 51.5577 300.104 51.2957C300.104 51.182 300.118 51.0591 300.146 50.927C300.173 50.7948 300.209 50.6661 300.253 50.5409C300.309 50.3948 300.369 50.2661 300.434 50.1548C300.499 50.0412 300.566 49.9217 300.636 49.7965L301.453 50.4817C301.419 50.5304 301.378 50.5942 301.332 50.673C301.285 50.7496 301.24 50.8307 301.196 50.9165C301.154 51.0023 301.118 51.0893 301.088 51.1774C301.06 51.2632 301.046 51.3386 301.046 51.4035C301.046 51.4499 301.053 51.4881 301.067 51.5183C301.114 51.6133 301.205 51.6968 301.342 51.7687C301.481 51.8406 301.655 51.902 301.864 51.953C302.073 52.0017 302.31 52.0388 302.577 52.0643C302.844 52.0899 303.129 52.1026 303.433 52.1026C303.597 52.1026 303.784 52.0945 303.993 52.0783C304.204 52.062 304.42 52.0365 304.643 52.0017C304.866 51.9646 305.087 51.9183 305.307 51.8626C305.528 51.8046 305.729 51.7351 305.913 51.6539C305.885 51.5449 305.851 51.4406 305.812 51.3409C305.775 51.2412 305.728 51.138 305.673 51.0313C305.617 50.9223 305.551 50.8064 305.474 50.6835C305.398 50.5606 305.307 50.4203 305.203 50.2626L306.059 49.7061C306.1 49.7733 306.149 49.8557 306.205 49.953C306.26 50.0504 306.316 50.1559 306.372 50.2696C306.43 50.3809 306.485 50.4991 306.539 50.6243C306.594 50.7496 306.643 50.8748 306.685 51C306.729 51.1252 306.762 51.2481 306.786 51.3687C306.809 51.487 306.818 51.5983 306.813 51.7026C306.802 51.8974 306.735 52.0701 306.612 52.2209C306.489 52.3693 306.331 52.4991 306.139 52.6104C305.949 52.7217 305.733 52.8157 305.492 52.8922C305.253 52.9687 305.009 53.0301 304.761 53.0765C304.515 53.1229 304.277 53.1565 304.045 53.1774C303.813 53.1983 303.609 53.2087 303.433 53.2087ZM304.859 49.56L304.191 50.2313L303.53 49.5704L302.876 50.2243L302.201 49.553L302.869 48.8817L303.53 49.5426L304.184 48.8887L304.859 49.56ZM309.634 53.2087C309.349 53.2087 309.105 53.1728 308.901 53.1009C308.696 53.0313 308.52 52.9235 308.372 52.7774C308.279 52.6846 308.207 52.5872 308.156 52.4852C308.107 52.3832 308.072 52.2835 308.048 52.1861C308.027 52.0864 308.015 51.9925 308.01 51.9043C308.008 51.8162 308.007 51.7409 308.007 51.6783V51.6261C308.009 51.5403 308.011 51.4174 308.014 51.2574C308.018 51.0951 308.021 50.9049 308.021 50.687C308.021 50.469 308.019 50.229 308.017 49.967C308.015 49.7049 308.008 49.4441 307.996 49.1843C307.987 48.9223 307.972 48.6707 307.951 48.4296C307.932 48.1884 307.906 47.9786 307.871 47.8L308.911 47.4835C308.941 47.6365 308.965 47.8174 308.984 48.0261C309.003 48.2325 309.018 48.4493 309.029 48.6765C309.043 48.9038 309.052 49.1322 309.057 49.3617C309.064 49.5913 309.069 49.8046 309.071 50.0017C309.073 50.1757 309.066 50.3461 309.05 50.513C309.036 50.6777 309.025 50.84 309.015 51C309.006 51.1577 309.006 51.3119 309.015 51.4626C309.027 51.611 309.059 51.7559 309.113 51.8974C309.134 51.9507 309.159 51.9913 309.189 52.0191C309.222 52.047 309.259 52.0678 309.301 52.0817C309.342 52.0933 309.387 52.1003 309.436 52.1026C309.487 52.1049 309.543 52.1061 309.603 52.1061H309.634C309.709 52.1061 309.779 52.1212 309.847 52.1513C309.914 52.1814 309.972 52.222 310.021 52.273C310.072 52.3217 310.112 52.3797 310.142 52.447C310.172 52.5142 310.187 52.5849 310.187 52.6591C310.187 52.7357 310.172 52.8075 310.142 52.8748C310.112 52.942 310.072 53 310.021 53.0487C309.972 53.0997 309.914 53.1391 309.847 53.167C309.779 53.1948 309.709 53.2087 309.634 53.2087ZM313.002 52.2139C313.076 52.1954 313.12 52.0991 313.134 51.9252C313.148 51.7443 313.114 51.582 313.033 51.4383C312.961 51.3061 312.852 51.1913 312.706 51.0939C312.56 50.9965 312.45 50.9629 312.376 50.993C312.276 51.0348 312.125 51.2922 311.924 51.7652C312.506 52.0991 312.865 52.2487 313.002 52.2139ZM314.758 52.6591C314.758 52.8099 314.705 52.9386 314.598 53.0452C314.489 53.1519 314.36 53.2064 314.209 53.2087H314.205C313.913 53.2087 313.677 53.109 313.496 52.9096C313.306 53.0997 313.063 53.1948 312.769 53.1948C312.428 53.1948 311.933 53.0232 311.284 52.68C311.242 52.7681 311.162 52.8574 311.044 52.9478C310.939 53.0267 310.82 53.0881 310.685 53.1322C310.516 53.1878 310.326 53.2157 310.115 53.2157C309.962 53.2157 309.832 53.1623 309.725 53.0557C309.619 52.949 309.565 52.8191 309.565 52.6661C309.565 52.5154 309.619 52.3867 309.725 52.28C309.832 52.1733 309.962 52.12 310.115 52.12C310.405 52.12 310.658 51.9762 310.873 51.6887C310.95 51.5843 311.031 51.4487 311.117 51.2817C311.142 51.2307 311.177 51.1612 311.221 51.073L311.27 50.9687L311.318 50.8713C311.632 50.2499 312.022 49.9391 312.491 49.9391C312.832 49.9391 313.133 50.0528 313.395 50.28C313.692 50.5374 313.86 50.891 313.899 51.3409L313.903 51.3722C313.907 51.3861 313.91 51.4023 313.91 51.4209C313.914 51.5345 313.931 51.6493 313.958 51.7652C313.984 51.8649 314.014 51.9438 314.049 52.0017C314.095 52.0736 314.149 52.1096 314.209 52.1096C314.36 52.1096 314.488 52.1629 314.595 52.2696C314.704 52.3762 314.758 52.5061 314.758 52.6591ZM314.164 52.6591C314.164 52.5826 314.178 52.5107 314.206 52.4435C314.234 52.3762 314.273 52.3183 314.324 52.2696C314.373 52.2186 314.431 52.1791 314.498 52.1513C314.566 52.1235 314.637 52.1096 314.714 52.1096H314.978C315.145 52.1096 315.305 52.1026 315.458 52.0887C315.614 52.0748 315.75 52.0458 315.869 52.0017C315.987 51.9554 316.082 51.8916 316.154 51.8104C316.228 51.727 316.268 51.6168 316.272 51.48C316.275 51.429 316.275 51.3872 316.272 51.3548C316.272 51.32 316.266 51.2794 316.255 51.233C316.243 51.1843 316.226 51.1217 316.203 51.0452C316.182 50.9664 316.152 50.8562 316.112 50.7148L317.124 50.4296C317.168 50.5409 317.209 50.6881 317.246 50.8713C317.283 51.0545 317.311 51.2551 317.33 51.473C317.334 51.5426 317.342 51.6145 317.354 51.6887C317.366 51.7629 317.384 51.8313 317.41 51.8939C317.437 51.9565 317.475 52.0087 317.521 52.0504C317.567 52.0899 317.628 52.1096 317.702 52.1096C317.778 52.1096 317.85 52.1235 317.917 52.1513C317.985 52.1791 318.043 52.2186 318.091 52.2696C318.142 52.3183 318.182 52.3762 318.21 52.4435C318.24 52.5107 318.255 52.5826 318.255 52.6591C318.255 52.7357 318.24 52.8075 318.21 52.8748C318.182 52.942 318.142 53 318.091 53.0487C318.04 53.0997 317.981 53.1391 317.914 53.167C317.849 53.1948 317.779 53.2087 317.705 53.2087C317.483 53.2087 317.291 53.1739 317.131 53.1043C316.974 53.0371 316.838 52.949 316.724 52.84C316.62 52.9096 316.499 52.9675 316.363 53.0139C316.228 53.0603 316.084 53.0974 315.931 53.1252C315.778 53.1554 315.621 53.1762 315.458 53.1878C315.296 53.2017 315.136 53.2087 314.978 53.2087H314.714C314.637 53.2087 314.566 53.1948 314.498 53.167C314.431 53.1391 314.373 53.0997 314.324 53.0487C314.273 53 314.234 52.942 314.206 52.8748C314.178 52.8075 314.164 52.7357 314.164 52.6591ZM317.493 54.4574L316.825 55.1287L316.164 54.4678L315.51 55.1217L314.836 54.4504L315.503 53.7791L316.164 54.44L316.818 53.7861L317.493 54.4574ZM317.667 52.6591C317.667 52.5849 317.682 52.5154 317.712 52.4504C317.742 52.3832 317.783 52.3241 317.834 52.273C317.883 52.222 317.941 52.1826 318.008 52.1548C318.075 52.1246 318.146 52.1096 318.22 52.1096H318.624C318.663 52.0423 318.717 51.9519 318.787 51.8383C318.857 51.7246 318.947 51.5983 319.058 51.4591C319.077 51.313 319.093 51.1333 319.107 50.92C319.121 50.7067 319.129 50.4748 319.131 50.2243C319.131 50.1316 319.13 50.0423 319.128 49.9565C319.128 49.8707 319.126 49.7803 319.121 49.6852C319.119 49.5878 319.113 49.4823 319.104 49.3687C319.097 49.2528 319.087 49.1194 319.076 48.9687C319.064 48.818 319.049 48.6452 319.03 48.4504C319.012 48.2557 318.99 48.0307 318.964 47.7757L320.084 47.4904C320.117 47.7293 320.144 47.96 320.164 48.1826C320.188 48.4052 320.205 48.6278 320.217 48.8504C320.23 49.073 320.24 49.2991 320.244 49.5287C320.251 49.7559 320.255 49.9936 320.255 50.2417C320.375 50.1467 320.499 50.0574 320.627 49.9739C320.757 49.8881 320.89 49.8139 321.027 49.7513C321.166 49.6887 321.31 49.64 321.458 49.6052C321.607 49.5681 321.763 49.5496 321.928 49.5496C322.118 49.5496 322.298 49.5797 322.467 49.64C322.636 49.7003 322.786 49.7872 322.916 49.9009C323.048 50.0145 323.156 50.1525 323.239 50.3148C323.325 50.4771 323.378 50.6603 323.399 50.8643C323.408 51.1171 323.381 51.3467 323.316 51.553C323.253 51.7571 323.163 51.9426 323.044 52.1096H323.744C323.82 52.1096 323.892 52.1235 323.959 52.1513C324.026 52.1791 324.084 52.2174 324.133 52.2661C324.184 52.3148 324.224 52.3728 324.251 52.44C324.279 52.5072 324.293 52.5791 324.293 52.6557C324.293 52.7322 324.279 52.8041 324.251 52.8713C324.224 52.9386 324.184 52.9965 324.133 53.0452C324.084 53.0962 324.026 53.1357 323.959 53.1635C323.892 53.1936 323.819 53.2087 323.74 53.2087H322.881C322.698 53.2087 322.494 53.2006 322.269 53.1843C322.046 53.1704 321.798 53.1287 321.524 53.0591C321.327 53.1125 321.127 53.1507 320.923 53.1739C320.719 53.1994 320.515 53.2122 320.31 53.2122L318.251 53.2087H318.22C318.146 53.2087 318.075 53.1948 318.008 53.167C317.941 53.1391 317.883 53.1009 317.834 53.0522C317.783 53.0035 317.742 52.9455 317.712 52.8783C317.682 52.811 317.667 52.738 317.667 52.6591ZM319.91 52.1096C320.047 52.1096 320.207 52.1061 320.39 52.0991C320.576 52.0922 320.767 52.0771 320.964 52.0539C321.161 52.0307 321.355 51.9971 321.545 51.953C321.735 51.9067 321.905 51.8452 322.053 51.7687C322.201 51.6899 322.32 51.5925 322.408 51.4765C322.496 51.3606 322.535 51.2203 322.526 51.0557C322.521 51.0046 322.496 50.9559 322.45 50.9096C322.403 50.8632 322.343 50.8226 322.269 50.7878C322.195 50.753 322.111 50.7252 322.018 50.7043C321.926 50.6835 321.832 50.673 321.737 50.673C321.632 50.68 321.502 50.7101 321.347 50.7635C321.194 50.8145 321.029 50.8957 320.853 51.007C320.677 51.1183 320.495 51.2643 320.307 51.4452C320.121 51.6238 319.943 51.8452 319.771 52.1096H319.91ZM321.886 47.5113L322.658 48.2835L321.886 49.0557L321.114 48.2835L321.886 47.5113ZM323.642 52.6591C323.642 52.5826 323.656 52.5107 323.684 52.4435C323.711 52.3762 323.751 52.3183 323.802 52.2696C323.851 52.2209 323.909 52.1826 323.976 52.1548C324.043 52.1246 324.115 52.1096 324.191 52.1096H324.251C324.573 52.1096 324.816 52.0586 324.981 51.9565C325.146 51.8522 325.228 51.6945 325.228 51.4835C325.228 51.4417 325.228 51.4046 325.228 51.3722C325.23 51.3397 325.227 51.298 325.217 51.247C325.211 51.1936 325.195 51.1252 325.172 51.0417C325.151 50.9559 325.119 50.8388 325.075 50.6904L326.066 50.4504C326.115 50.5896 326.158 50.7461 326.195 50.92C326.232 51.0916 326.251 51.2794 326.251 51.4835C326.251 51.5507 326.256 51.6214 326.268 51.6957C326.282 51.7675 326.303 51.8348 326.331 51.8974C326.361 51.9577 326.4 52.0087 326.449 52.0504C326.5 52.0899 326.564 52.1096 326.64 52.1096C326.714 52.1096 326.785 52.1246 326.852 52.1548C326.92 52.1826 326.977 52.2209 327.026 52.2696C327.077 52.3183 327.118 52.3762 327.148 52.4435C327.178 52.5107 327.193 52.5826 327.193 52.6591C327.193 52.7357 327.178 52.8075 327.148 52.8748C327.12 52.942 327.081 53 327.03 53.0487C326.979 53.0997 326.92 53.1391 326.852 53.167C326.787 53.1948 326.718 53.2087 326.644 53.2087C326.421 53.2087 326.231 53.1762 326.073 53.1113C325.915 53.0487 325.78 52.9641 325.666 52.8574C325.499 52.978 325.3 53.0661 325.068 53.1217C324.838 53.1797 324.566 53.2087 324.251 53.2087H324.191C324.115 53.2087 324.043 53.1948 323.976 53.167C323.909 53.1391 323.851 53.0997 323.802 53.0487C323.751 53 323.711 52.942 323.684 52.8748C323.656 52.8075 323.642 52.7357 323.642 52.6591ZM325.544 48.3357L326.317 49.1078L325.544 49.88L324.772 49.1078L325.544 48.3357ZM329.951 48.6696L329.284 49.3409L328.623 48.68L327.969 49.3339L327.294 48.6626L327.962 47.9913L328.623 48.6522L329.277 47.9983L329.951 48.6696ZM326.47 52.6591C326.47 52.5826 326.485 52.5107 326.515 52.4435C326.543 52.3762 326.581 52.3183 326.63 52.2696C326.678 52.2186 326.736 52.1791 326.804 52.1513C326.871 52.1235 326.943 52.1096 327.019 52.1096H327.405H327.572C327.677 52.1096 327.791 52.1049 327.917 52.0957C328.042 52.0864 328.163 52.0713 328.278 52.0504C328.394 52.0296 328.499 52.0017 328.591 51.967C328.687 51.9299 328.756 51.8835 328.8 51.8278C328.826 51.7884 328.838 51.7351 328.838 51.6678C328.838 51.5681 328.814 51.4499 328.765 51.313C328.719 51.1762 328.663 51.0371 328.598 50.8957C328.534 50.7542 328.466 50.6186 328.397 50.4887C328.329 50.3588 328.275 50.251 328.233 50.1652L329.225 49.6783C329.296 49.8035 329.366 49.9519 329.433 50.1235C329.5 50.2928 329.561 50.4678 329.614 50.6487C329.667 50.8272 329.71 51.0035 329.743 51.1774C329.775 51.349 329.791 51.4986 329.791 51.6261C329.791 51.8603 329.75 52.0748 329.666 52.2696C329.569 52.4875 329.436 52.6684 329.266 52.8122C329.097 52.9536 328.894 53.058 328.658 53.1252C328.588 53.1438 328.501 53.1588 328.397 53.1704C328.292 53.182 328.187 53.1901 328.08 53.1948C327.974 53.2017 327.873 53.2052 327.778 53.2052C327.683 53.2075 327.608 53.2087 327.555 53.2087H327.051H327.019C326.943 53.2087 326.871 53.1948 326.804 53.167C326.736 53.1391 326.678 53.0997 326.63 53.0487C326.581 53 326.543 52.942 326.515 52.8748C326.485 52.8075 326.47 52.7357 326.47 52.6591Z" fill="#191919"/>
</svg>
