<svg width="22" height="22" viewBox="0 0 22 22" fill="none" xmlns="http://www.w3.org/2000/svg">
<g clip-path="url(#clip0_11021_6449)">
<path d="M2.75016 5.49967H11.9168C12.4031 5.49967 12.8694 5.30652 13.2132 4.9627C13.557 4.61889 13.7502 4.15257 13.7502 3.66634C13.7502 3.18011 13.557 2.71379 13.2132 2.36998C12.8694 2.02616 12.4031 1.83301 11.9168 1.83301L2.75016 1.83301C2.26393 1.83301 1.79762 2.02616 1.4538 2.36998C1.10998 2.71379 0.916828 3.18011 0.916828 3.66634C0.916828 4.15257 1.10998 4.61889 1.4538 4.9627C1.79762 5.30652 2.26393 5.49967 2.75016 5.49967ZM18.3335 6.41634C19.0628 6.41634 19.7623 6.12661 20.278 5.61088C20.7938 5.09516 21.0835 4.39569 21.0835 3.66634C21.0835 2.93699 20.7938 2.23752 20.278 1.7218C19.7623 1.20607 19.0628 0.91634 18.3335 0.91634C17.6042 0.91634 16.9047 1.20607 16.389 1.7218C15.8732 2.23752 15.5835 2.93699 15.5835 3.66634C15.5835 4.39569 15.8732 5.09516 16.389 5.61088C16.9047 6.12661 17.6042 6.41634 18.3335 6.41634ZM2.75016 12.833H11.9168C12.4031 12.833 12.8694 12.6399 13.2132 12.296C13.557 11.9522 13.7502 11.4859 13.7502 10.9997C13.7502 10.5134 13.557 10.0471 13.2132 9.70331C12.8694 9.3595 12.4031 9.16634 11.9168 9.16634H2.75016C2.26393 9.16634 1.79762 9.3595 1.4538 9.70331C1.10998 10.0471 0.916828 10.5134 0.916828 10.9997C0.916828 11.4859 1.10998 11.9522 1.4538 12.296C1.79762 12.6399 2.26393 12.833 2.75016 12.833ZM18.3335 13.7497C19.0628 13.7497 19.7623 13.4599 20.278 12.9442C20.7938 12.4285 21.0835 11.729 21.0835 10.9997C21.0835 10.2703 20.7938 9.57085 20.278 9.05513C19.7623 8.5394 19.0628 8.24967 18.3335 8.24967C17.6042 8.24967 16.9047 8.5394 16.389 9.05513C15.8732 9.57085 15.5835 10.2703 15.5835 10.9997C15.5835 11.729 15.8732 12.4285 16.389 12.9442C16.9047 13.4599 17.6042 13.7497 18.3335 13.7497ZM11.9168 16.4997L2.75016 16.4997C2.26393 16.4997 1.79762 16.6928 1.4538 17.0366C1.10998 17.3805 0.916828 17.8468 0.916828 18.333C0.916828 18.8192 1.10998 19.2856 1.4538 19.6294C1.79762 19.9732 2.26393 20.1663 2.75016 20.1663L11.9168 20.1663C12.4031 20.1663 12.8694 19.9732 13.2132 19.6294C13.557 19.2856 13.7502 18.8192 13.7502 18.333C13.7502 17.8468 13.557 17.3805 13.2132 17.0366C12.8694 16.6928 12.4031 16.4997 11.9168 16.4997ZM15.5835 18.333C15.5835 17.9719 15.6546 17.6143 15.7928 17.2806C15.931 16.947 16.1336 16.6438 16.389 16.3885C16.6443 16.1331 16.9475 15.9305 17.2811 15.7923C17.6148 15.6541 17.9724 15.583 18.3335 15.583C18.6946 15.583 19.0522 15.6541 19.3859 15.7923C19.7195 15.9305 20.0227 16.1331 20.278 16.3885C20.5334 16.6438 20.736 16.947 20.8742 17.2806C21.0124 17.6143 21.0835 17.9719 21.0835 18.333C21.0835 19.0624 20.7938 19.7618 20.278 20.2776C19.7623 20.7933 19.0628 21.083 18.3335 21.083C17.6042 21.083 16.9047 20.7933 16.389 20.2776C15.8732 19.7618 15.5835 19.0624 15.5835 18.333Z" fill="#191919"/>
</g>
<defs>
<clipPath id="clip0_11021_6449">
<rect width="22" height="22" fill="white" transform="matrix(-1 0 0 -1 22 22)"/>
</clipPath>
</defs>
</svg>
