<svg width="16" height="16" viewBox="0 0 16 16" fill="none" xmlns="http://www.w3.org/2000/svg">
<g clip-path="url(#clip0_8216_44)">
<path d="M15.4134 6.57962L9.41336 0.579622C9.03722 0.204681 8.52778 -0.00585937 7.99669 -0.00585938C7.4656 -0.00585937 6.95616 0.204681 6.58002 0.579622L0.580023 6.57962C0.393366 6.766 0.245284 6.98735 0.14425 7.231C0.0432155 7.47466 -0.00878906 7.73585 -0.00878906 7.99962C-0.00878906 8.2634 0.0432155 8.52458 0.14425 8.76824C0.245284 9.0119 0.393366 9.23325 0.580023 9.41962L6.58002 15.4196C6.7664 15.6063 6.98775 15.7544 7.2314 15.8554C7.47506 15.9564 7.73625 16.0084 8.00002 16.0084C8.2638 16.0084 8.52498 15.9564 8.76864 15.8554C9.0123 15.7544 9.23365 15.6063 9.42002 15.4196L15.42 9.41962C15.6067 9.23325 15.7548 9.0119 15.8558 8.76824C15.9568 8.52458 16.0088 8.2634 16.0088 7.99962C16.0088 7.73585 15.9568 7.47466 15.8558 7.231C15.7548 6.98735 15.6067 6.766 15.42 6.57962H15.4134ZM8.00002 12.673C7.72331 12.673 7.45794 12.563 7.26228 12.3674C7.06661 12.1717 6.95669 11.9063 6.95669 11.6296C6.95669 11.3529 7.06661 11.0875 7.26228 10.8919C7.45794 10.6962 7.72331 10.5863 8.00002 10.5863C8.27673 10.5863 8.54211 10.6962 8.73777 10.8919C8.93343 11.0875 9.04336 11.3529 9.04336 11.6296C9.04336 11.9063 8.93343 12.1717 8.73777 12.3674C8.54211 12.563 8.27673 12.673 8.00002 12.673ZM9.04669 8.52629C9.04669 8.803 8.93677 9.06837 8.7411 9.26404C8.54544 9.4597 8.28007 9.56962 8.00336 9.56962C7.72665 9.56962 7.46127 9.4597 7.26561 9.26404C7.06994 9.06837 6.96002 8.803 6.96002 8.52629V4.36629C6.96002 4.08958 7.06994 3.8242 7.26561 3.62854C7.46127 3.43288 7.72665 3.32296 8.00336 3.32296C8.28007 3.32296 8.54544 3.43288 8.7411 3.62854C8.93677 3.8242 9.04669 4.08958 9.04669 4.36629V8.52629Z" fill="#BD5B00"/>
</g>
<defs>
<clipPath id="clip0_8216_44">
<rect width="16" height="16" fill="white"/>
</clipPath>
</defs>
</svg>
